<svg width="27" height="25" viewBox="0 0 27 25" fill="none" xmlns="http://www.w3.org/2000/svg">
<path d="M12.3351 0.303711C15.363 0.303711 17.8324 2.73081 17.8324 5.71896V11.5611H10.3869C9.85329 11.5611 9.43137 11.9758 9.43137 12.5002C9.43137 13.0125 9.85329 13.4393 10.3869 13.4393H17.8324V19.2693C17.8324 22.2574 15.363 24.6967 12.3103 24.6967H6.26702C3.22676 24.6967 0.757324 22.2696 0.757324 19.2815V5.73115C0.757324 2.73081 3.23917 0.303711 6.27943 0.303711H12.3351ZM20.9306 8.29266C21.2965 7.91457 21.8941 7.91457 22.26 8.28047L25.8214 11.8296C26.0043 12.0126 26.1019 12.2443 26.1019 12.5005C26.1019 12.7444 26.0043 12.9883 25.8214 13.1591L22.26 16.7082C22.077 16.8912 21.8331 16.9888 21.6014 16.9888C21.3575 16.9888 21.1135 16.8912 20.9306 16.7082C20.5647 16.3424 20.5647 15.7447 20.9306 15.3788L22.882 13.4396H17.8327V11.5613H22.882L20.9306 9.62208C20.5647 9.25619 20.5647 8.65856 20.9306 8.29266Z" fill="white"/>
</svg>
