<svg width="480" height="700" viewBox="0 0 480 700" fill="none" xmlns="http://www.w3.org/2000/svg">
<g clip-path="url(#clip0_399_879)">
<path opacity="0.18" d="M136.841 166.961C111.66 194.197 103.289 233.757 81.9137 264.289C56.9262 300 13.6977 324.517 4.67941 367.655C-5.20204 415.16 31.7455 458.71 69.0111 488.136C86.9567 502.319 106.231 515.996 117.907 536.005C125.21 548.529 129.095 562.818 134.944 576.142C153.503 618.668 194.517 651.118 239.506 653.484C284.495 655.85 330.495 625.059 342.682 580.132C348.633 558.169 347.146 533.592 358.674 514.218C373.757 488.807 405.435 480.968 428.344 462.9C472.163 428.366 474.582 350.859 433.012 313.418C396.564 280.626 335.594 276.33 315.105 231.026C309.551 218.75 307.972 204.943 303.111 192.361C277.816 126.93 180.251 119.998 136.841 166.961Z" fill="#167FFC"/>
<path d="M216.097 334.24C229.59 334.24 240.528 322.904 240.528 308.922C240.528 294.939 229.59 283.604 216.097 283.604C202.604 283.604 191.666 294.939 191.666 308.922C191.666 322.904 202.604 334.24 216.097 334.24Z" fill="#3D3D56"/>
<path d="M298.829 500.483C298.829 500.483 297.454 532.262 295.478 538.418C293.502 544.574 295.853 547.399 289.651 549.011C283.45 550.624 285.631 515.984 285.631 515.984L287.72 502.707L298.829 500.483Z" fill="url(#paint0_linear_399_879)"/>
<path d="M233.986 509.722L248.331 596.74H260.598L263.664 546.61L266.492 609.546H279.952C279.952 609.546 291.525 540.607 289.39 527.919C288.804 523.736 287.533 519.688 285.631 515.949L233.986 509.722Z" fill="#23233A"/>
<path d="M242.448 374.058C241.948 367.338 242.3 360.193 245.787 354.508C247.207 352.222 249.074 350.27 251.267 348.778C253.46 347.285 255.93 346.286 258.519 345.845C265.981 344.668 273.285 348.199 280.099 351.613C290.094 356.697 300.158 361.829 308.949 368.88C317.74 375.93 325.293 385.17 328.621 396.175C330.117 401.533 330.915 407.075 330.995 412.653C331.266 417.856 330.919 423.074 329.961 428.19C328.232 436.025 324.485 443.228 319.119 449.032C313.752 454.835 306.968 459.022 299.487 461.147C282.451 465.737 263.04 459.252 247.627 468.02C246.617 468.748 245.444 469.194 244.22 469.315C243.388 469.232 242.599 468.893 241.956 468.341C241.312 467.79 240.842 467.05 240.608 466.219C240.17 464.547 240.17 462.784 240.608 461.111C241.686 455.915 244.209 451.161 247.865 447.434C252.568 442.667 258.837 439.913 263.971 435.664C264.845 435.061 265.512 434.188 265.879 433.169C266.493 430.815 264.13 428.873 261.961 428.002C259.791 427.131 257.202 426.354 256.339 424.129C255.634 422.328 256.338 420.327 256.827 418.444C258.792 410.205 254.555 404.673 250.182 398.564C245.105 391.502 243.084 382.674 242.448 374.058Z" fill="#3D3D56"/>
<path d="M280.27 376.495C280.27 376.495 287.925 389.76 296.727 398.541C305.53 407.321 320.522 423.105 310.97 435.087C305.232 442.281 297.924 447.958 289.651 451.648L270.263 431.462V398.505L280.27 376.495Z" fill="#23233A"/>
<path d="M213.076 364.713L231.567 363.289C231.567 363.289 226.376 400.483 251.614 412.559C276.851 424.635 292.378 427.154 294.093 436.476C295.808 445.798 302.486 499.6 302.486 499.6L289.777 502.672L289.39 461.064L289.879 513.548C289.879 513.548 262.347 529.555 254.419 526.401C246.491 523.246 229.852 520.621 230.249 493.879C230.647 467.137 242.743 448.211 229.613 427.86C216.483 407.509 212.735 374.353 213.076 364.713Z" fill="#167FFC"/>
<path d="M213.076 364.713L231.566 363.289C231.566 363.289 226.376 400.483 251.613 412.559C276.851 424.635 292.377 427.154 294.092 436.476C295.807 445.798 302.486 499.6 302.486 499.6L289.776 502.672L289.39 461.064L289.878 513.548C289.878 513.548 262.347 529.555 254.419 526.401C246.491 523.246 229.851 520.621 230.249 493.879C230.646 467.137 242.743 448.211 229.613 427.86C216.483 407.509 212.735 374.353 213.076 364.713Z" fill="url(#paint1_linear_399_879)"/>
<path d="M257.1 415.16C257.1 415.16 257.804 426.224 264.664 425.953C271.524 425.683 271.536 422.128 271.536 422.128L275.897 402.848L257.1 404.025C257.1 404.025 259.235 412.194 257.1 415.16Z" fill="url(#paint2_linear_399_879)"/>
<path d="M257.951 409.087C257.951 409.087 257.088 414.783 260.621 416.396C264.153 418.008 269.843 415.984 271.218 414.36L271.536 422.081L274.716 408.016L257.951 409.087Z" fill="#595BD4"/>
<path d="M251.216 376.118C251.216 376.118 247.252 405.402 261.495 411.323C275.738 417.243 280.099 401.354 281.939 393.726C283.779 386.099 278.452 358.769 267.174 363.018C260.57 365.374 254.94 369.996 251.216 376.118Z" fill="url(#paint3_linear_399_879)"/>
<path d="M217.744 364.36C217.744 364.36 219.073 354.12 219.107 353.931C219.225 352.981 219.09 352.015 218.718 351.138C218.346 350.261 217.75 349.505 216.995 348.952C215.632 347.893 214.132 345.421 214.132 339.713C214.132 334.004 219.97 327.825 222.378 330.297C224.786 332.768 224.797 334.722 227.035 335.087C229.273 335.452 227.546 341.337 227.035 343.326C226.524 345.315 229.784 363.465 229.784 363.465L217.744 364.36Z" fill="url(#paint4_linear_399_879)"/>
<path d="M289.39 461.111L296.773 500.977L289.776 502.672L289.39 461.111Z" fill="url(#paint5_linear_399_879)"/>
<path d="M266.492 609.546C266.492 609.546 263.301 642.149 268.537 668.644H272.183L279.952 609.546H266.492ZM248.331 596.74L255.646 663.23L258.326 662.053C258.326 662.053 263.346 614.972 262.937 610.428C262.529 605.885 260.598 596.716 260.598 596.716L248.331 596.74Z" fill="#23233A"/>
<path d="M258.326 662.076C258.326 662.076 259.95 664.925 259.768 666.949C259.632 668.338 250.364 680.25 243.742 686.676C236.587 693.621 229.647 691.055 229.647 691.055C227.057 690.784 225.717 684.616 227.693 682.815C232 678.992 236.841 675.865 242.05 673.541C253.919 668.338 255.68 663.183 255.68 663.183L258.326 662.076ZM268.537 668.644C267.824 670.957 267.565 673.394 267.776 675.812C268.23 679.261 282.541 696.139 282.541 696.139C282.541 696.139 294.263 704.025 298.374 697.246C302.486 690.466 286.244 681.474 283.018 679.59C279.793 677.707 272.183 668.656 272.183 668.656L268.537 668.644Z" fill="#23233A"/>
<path d="M186.544 269.786C188.1 274.951 191.182 279.478 195.356 282.729C199.53 285.979 204.585 287.788 209.805 287.9C216.336 287.9 223.684 285.323 230.499 276.789C248.672 254.049 215.223 213.971 260.28 165.513C305.337 117.055 310.028 31.1559 229.102 25.4473C167.303 21.1158 142.02 60.9464 134.91 85.8757V111.146L178.32 128.802C178.32 128.802 194.926 76.589 222.264 83.2392C249.603 89.8894 223.855 136.711 206.602 154.508C168.587 193.738 179.581 247.364 186.544 269.786Z" fill="#3D3D56"/>
<path d="M186.544 237.782C188.11 242.941 191.196 247.462 195.368 250.71C199.539 253.959 204.588 255.773 209.805 255.897C216.336 255.897 223.684 252.825 230.499 244.303C248.672 221.551 212.906 198.941 257.974 150.483C303.043 102.024 310.062 5.93217 229.136 0.258913C148.21 -5.41435 134.944 85.911 134.944 85.911L178.355 103.566C178.355 103.566 194.926 51.4124 222.265 58.0391C249.603 64.6657 223.855 111.5 206.602 129.308C168.587 168.503 179.581 215.36 186.544 237.782Z" fill="#167FFC"/>
<path d="M216.097 317.679C229.59 317.679 240.528 306.344 240.528 292.361C240.528 278.378 229.59 267.043 216.097 267.043C202.604 267.043 191.666 278.378 191.666 292.361C191.666 306.344 202.604 317.679 216.097 317.679Z" fill="#167FFC"/>
<path d="M118.68 304.19C121.107 298.808 118.864 292.405 113.67 289.889C108.476 287.373 102.298 289.697 99.8701 295.08C97.4425 300.463 99.6853 306.866 104.879 309.381C110.073 311.897 116.252 309.573 118.68 304.19Z" fill="#3D3D56"/>
<path d="M92.011 288.465C93.3589 290.292 95.2253 291.636 97.3481 292.307C99.4709 292.979 101.743 292.944 103.846 292.208C106.458 291.243 109.025 289.089 110.559 284.652C114.625 272.881 95.6569 261.853 106.89 235.711C118.123 209.569 107.958 174.506 74.8377 184.44C49.5321 191.996 45.0003 211.711 45.6477 222.752L49.18 232.827L68.9883 233.345C68.9883 233.345 68.3069 210.005 80.1646 208.545C92.0224 207.086 88.2856 229.673 83.8787 239.383C74.1789 260.782 86.0821 280.556 92.011 288.465Z" fill="#3D3D56"/>
<path d="M87.5362 275.671C88.8789 277.501 90.7432 278.848 92.8652 279.52C94.9872 280.191 97.2593 280.154 99.3598 279.414C101.984 278.449 104.482 276.106 106.004 271.669C110.082 259.899 92.6359 256.191 103.858 230.049C115.079 203.908 104.437 164.466 71.3056 174.364C38.1743 184.263 45.7047 222.752 45.7047 222.752L65.513 223.258C65.513 223.258 64.8429 199.929 76.6893 198.47C88.5357 197.01 84.8103 219.597 80.4034 229.296C70.6923 250.694 81.5959 267.761 87.5362 275.671Z" fill="#167FFC"/>
<path d="M111.532 302.686C116.682 300.074 118.813 293.631 116.293 288.294C113.772 282.957 107.554 280.749 102.405 283.361C97.2552 285.973 95.1239 292.416 97.6444 297.753C100.165 303.089 106.383 305.298 111.532 302.686Z" fill="#167FFC"/>
<path d="M63.5366 402.837C63.9694 404.915 63.7983 407.08 63.0446 409.058C62.291 411.035 60.9888 412.737 59.3023 413.948C57.6159 415.16 55.6209 415.826 53.5694 415.863C51.5178 415.9 49.5017 415.306 47.7757 414.156C46.0497 413.006 44.6912 411.352 43.8717 409.403C43.0522 407.453 42.8086 405.296 43.1715 403.203C43.5345 401.111 44.4877 399.176 45.9109 397.644C47.3341 396.113 49.1634 395.052 51.1677 394.597C52.5021 394.293 53.8815 394.265 55.2264 394.514C56.5714 394.764 57.8555 395.287 59.0049 396.053C60.1543 396.818 61.1464 397.812 61.9241 398.976C62.7018 400.14 63.2498 401.452 63.5366 402.837Z" fill="#3D3D56"/>
<path d="M37.6858 391.69C38.7866 393.688 40.4657 395.277 42.4857 396.232C44.5056 397.186 46.764 397.459 48.9416 397.01C51.6561 396.41 54.4843 394.656 56.5514 390.443C62.0828 379.284 44.671 365.808 59.107 341.42C73.543 317.032 67.9208 280.932 33.8241 286.241C7.7802 290.29 0.795038 309.216 0.0454102 320.245L2.31701 330.72L21.8528 333.945C21.8528 333.945 24.1243 310.723 36.073 310.888C48.0216 311.052 41.4453 332.933 35.8572 341.949C23.511 361.829 32.8132 383.051 37.6858 391.69Z" fill="#3D3D56"/>
<path d="M34.8689 378.402C35.9711 380.398 37.6504 381.986 39.6699 382.94C41.6894 383.895 43.9473 384.168 46.1247 383.722C48.8393 383.121 51.6106 381.132 53.6891 376.954C59.2205 365.796 42.3879 359.793 56.8239 335.405C71.2599 311.017 65.6945 270.457 31.5978 275.765C-2.49885 281.073 0.0453424 320.245 0.0453424 320.245L19.5811 323.446C19.5811 323.446 21.8527 300.224 33.8013 300.388C45.7499 300.553 39.1736 322.434 33.5855 331.45C21.2961 351.354 29.985 369.762 34.8689 378.402Z" fill="#167FFC"/>
<path d="M52.6947 409.013C58.4121 408.57 62.701 403.409 62.2741 397.484C61.8472 391.559 56.8662 387.114 51.1488 387.556C45.4313 387.999 41.1424 393.161 41.5693 399.086C41.9962 405.011 46.9772 409.455 52.6947 409.013Z" fill="#167FFC"/>
<path d="M367.419 321.987C366.962 324.061 365.921 325.947 364.429 327.408C362.936 328.869 361.06 329.839 359.036 330.194C357.012 330.55 354.932 330.276 353.058 329.407C351.185 328.538 349.602 327.113 348.51 325.311C347.417 323.51 346.865 321.414 346.923 319.287C346.98 317.161 347.644 315.1 348.832 313.364C350.019 311.629 351.677 310.298 353.594 309.538C355.512 308.779 357.604 308.626 359.605 309.098C362.29 309.735 364.621 311.45 366.086 313.867C367.551 316.284 368.031 319.204 367.419 321.987Z" fill="#3D3D56"/>
<path d="M348.645 300.471C348.814 302.76 349.673 304.936 351.099 306.693C352.525 308.45 354.448 309.699 356.595 310.264C359.287 310.923 362.581 310.558 366.181 307.698C375.779 300.059 365.602 280.167 388.704 264.513C411.806 248.858 421.642 213.724 388.602 203.425C363.387 195.551 349.258 209.569 344.033 219.209L341.762 229.661L358.14 241.219C358.14 241.219 369.782 221.21 380.504 226.671C391.226 232.133 376.267 248.976 367.488 254.661C348.145 267.185 347.827 290.49 348.645 300.471Z" fill="#3D3D56"/>
<path d="M351.575 287.206C351.743 289.495 352.601 291.673 354.028 293.43C355.455 295.187 357.378 296.435 359.526 296.999C362.229 297.669 365.569 297.093 369.169 294.233C378.767 286.594 366.023 273.705 389.136 258.051C412.25 242.396 423.926 203.296 390.988 192.961C358.05 182.627 344.113 219.209 344.113 219.209L360.492 230.767C360.492 230.767 372.133 210.758 382.855 216.208C393.577 221.657 378.619 238.571 369.85 244.209C350.451 256.733 350.724 277.236 351.575 287.206Z" fill="#167FFC"/>
<path d="M368.435 316.693C370.554 311.173 367.955 304.917 362.628 302.72C357.3 300.523 351.263 303.218 349.144 308.738C347.024 314.258 349.624 320.514 354.951 322.711C360.278 324.908 366.315 322.214 368.435 316.693Z" fill="#167FFC"/>
<path d="M420.132 418.232C419.252 419.522 418.022 420.513 416.598 421.079C415.174 421.645 413.621 421.76 412.134 421.412C410.646 421.063 409.292 420.265 408.243 419.119C407.193 417.973 406.494 416.53 406.236 414.972C405.977 413.415 406.17 411.813 406.789 410.369C407.409 408.926 408.428 407.704 409.717 406.86C411.006 406.016 412.507 405.587 414.032 405.627C415.556 405.667 417.035 406.175 418.281 407.086C419.109 407.691 419.814 408.46 420.356 409.348C420.897 410.236 421.264 411.226 421.436 412.261C421.608 413.296 421.582 414.357 421.358 415.381C421.134 416.406 420.718 417.374 420.132 418.232Z" fill="#3D3D56"/>
<path d="M413.09 397.94C412.586 399.567 412.588 401.318 413.095 402.944C413.603 404.57 414.59 405.99 415.918 407.003C416.971 407.755 418.179 408.241 419.445 408.423C420.711 408.604 422 408.477 423.21 408.051C431.899 405.614 430.32 388.948 450.469 384.946C470.619 380.944 486.963 359.663 467.063 342.902C451.878 330.108 438.339 335.605 432.115 340.701L427.674 347.21L435.784 359.969C435.784 359.969 449.243 349.635 455.092 356.509C460.942 363.383 446.097 370.633 438.509 371.951C421.836 374.894 415.237 390.819 413.09 397.94Z" fill="#3D3D56"/>
<path d="M418.724 389.666C418.219 391.295 418.22 393.047 418.727 394.675C419.235 396.303 420.223 397.725 421.552 398.741C423.221 399.988 425.675 400.577 428.923 399.659C437.612 397.222 432.331 384.628 452.536 380.638C472.742 376.648 491.415 353.154 471.516 336.394C451.616 319.633 432.126 340.701 432.126 340.701L440.236 353.449C440.236 353.449 453.695 343.114 459.544 350C465.394 356.886 450.549 364.124 442.962 365.443C426.277 368.385 420.87 382.556 418.724 389.666Z" fill="#167FFC"/>
<path d="M423.103 413.839C425.517 410.194 424.623 405.212 421.105 402.711C417.588 400.209 412.781 401.136 410.367 404.781C407.954 408.426 408.848 413.408 412.365 415.909C415.882 418.41 420.69 417.483 423.103 413.839Z" fill="#167FFC"/>
<path d="M216.767 630.826C216.623 630.826 216.482 630.785 216.358 630.709C216.262 630.654 216.177 630.579 216.11 630.489C216.042 630.4 215.993 630.296 215.965 630.186C215.938 630.076 215.932 629.961 215.949 629.848C215.966 629.736 216.004 629.628 216.063 629.532C224.669 613.219 231.689 596.06 237.018 578.307C245.446 550.589 253.397 509.216 243.379 469.503C224.07 393.056 219.595 346.116 219.527 345.645C219.508 345.422 219.575 345.2 219.713 345.028C219.852 344.856 220.05 344.748 220.265 344.727C220.478 344.707 220.689 344.775 220.853 344.917C221.016 345.058 221.12 345.26 221.14 345.48C221.14 345.951 225.683 392.773 244.923 469.068C255.043 509.181 247.036 550.906 238.529 578.849C233.159 596.7 226.098 613.957 217.449 630.367C217.383 630.499 217.286 630.61 217.167 630.691C217.047 630.771 216.909 630.818 216.767 630.826Z" fill="#53D86A"/>
</g>
<defs>
<linearGradient id="paint0_linear_399_879" x1="285.256" y1="524.753" x2="298.829" y2="524.753" gradientUnits="userSpaceOnUse">
<stop stop-color="#C4C5EC"/>
<stop offset="0.42" stop-color="#FE9526"/>
<stop offset="1" stop-color="#F2DEC9"/>
</linearGradient>
<linearGradient id="paint1_linear_399_879" x1="205.034" y1="457.156" x2="466.09" y2="370.23" gradientUnits="userSpaceOnUse">
<stop stop-color="white" stop-opacity="0"/>
<stop offset="0.99" stop-color="white"/>
</linearGradient>
<linearGradient id="paint2_linear_399_879" x1="273.557" y1="388.759" x2="263.871" y2="412.559" gradientUnits="userSpaceOnUse">
<stop stop-color="#C4C5EC"/>
<stop offset="0.42" stop-color="#FE9526"/>
<stop offset="1" stop-color="#F2DEC9"/>
</linearGradient>
<linearGradient id="paint3_linear_399_879" x1="250.705" y1="387.594" x2="282.291" y2="387.594" gradientUnits="userSpaceOnUse">
<stop stop-color="#C4C5EC"/>
<stop offset="0.42" stop-color="#FE9526"/>
<stop offset="1" stop-color="#F2DEC9"/>
</linearGradient>
<linearGradient id="paint4_linear_399_879" x1="214.132" y1="347.046" x2="229.784" y2="347.046" gradientUnits="userSpaceOnUse">
<stop stop-color="#C4C5EC"/>
<stop offset="0.42" stop-color="#FE9526"/>
<stop offset="1" stop-color="#F2DEC9"/>
</linearGradient>
<linearGradient id="paint5_linear_399_879" x1="301.702" y1="477.436" x2="233.796" y2="503.898" gradientUnits="userSpaceOnUse">
<stop stop-opacity="0"/>
<stop offset="1"/>
</linearGradient>
<clipPath id="clip0_399_879">
<rect width="480" height="700" fill="white"/>
</clipPath>
</defs>
</svg>
