<svg width="660" height="660" viewBox="0 0 660 660" fill="none" xmlns="http://www.w3.org/2000/svg">
<path fill-rule="evenodd" clip-rule="evenodd" d="M524.72 503.716C635.859 502.69 657.179 560.96 452.916 548.553C417.471 546.401 361.249 529.227 314.86 525.884C264.758 522.273 167.199 527.495 152.298 526.892C93.4915 524.502 58.2495 502.365 227.565 503.716C289.73 504.211 468.909 504.229 524.72 503.716Z" fill="#F6F6F6"/>
<path d="M512.355 541.653C531.587 541.653 547.178 539.389 547.178 536.595C547.178 533.802 531.587 531.538 512.355 531.538C493.124 531.538 477.533 533.802 477.533 536.595C477.533 539.389 493.124 541.653 512.355 541.653Z" fill="black" fill-opacity="0.2"/>
<path d="M328.208 513.987C343.046 513.987 355.074 512.285 355.074 510.186C355.074 508.086 343.046 506.385 328.208 506.385C313.371 506.385 301.343 508.086 301.343 510.186C301.343 512.285 313.371 513.987 328.208 513.987Z" fill="black" fill-opacity="0.2"/>
<path fill-rule="evenodd" clip-rule="evenodd" d="M582.635 283.38C616.773 386.146 535.332 536.025 449.042 458.808C403.87 418.389 322.146 367.198 264.06 401.115C34.2581 535.31 18.6227 305.14 89.3585 318.18C280.804 353.47 267.432 263.967 313.027 195.05C373.835 103.141 536.267 143.788 582.635 283.38Z" fill="#F6F6F6"/>
<path d="M161.456 522.123C175.904 522.123 187.616 520.301 187.616 518.054C187.616 515.807 175.904 513.985 161.456 513.985C147.008 513.985 135.296 515.807 135.296 518.054C135.296 520.301 147.008 522.123 161.456 522.123Z" fill="black" fill-opacity="0.2"/>
<path d="M188.302 507.879C187.34 506.752 186.459 505.557 185.667 504.304C183.067 500.363 181.491 496.272 180.282 491.215C177.838 482.052 177.411 472.468 179.031 463.124C179.161 463.914 179.193 464.675 179.29 465.509C179.32 466.671 179.913 467.411 180.473 468.195C180.902 468.833 181.03 469.783 181.557 470.531C182.448 471.601 184.032 471.429 184.895 470.21C185.519 470.447 186.2 470.491 186.849 470.334C187.498 470.178 188.084 469.83 188.532 469.335C189.36 468.401 189.826 467.144 190.193 465.858C190.259 465.528 190.327 465.2 190.361 464.915C191.054 465.443 191.912 465.753 192.706 465.023C194.163 463.821 194.434 461.459 194.141 459.601C194.03 458.852 193.832 458.117 193.552 457.413L193.618 457.406C195.073 456.847 194.782 454.506 194.19 453.364C193.757 452.356 193.181 451.416 192.479 450.573C192.613 450.309 192.649 450.006 192.58 449.718C192.419 447.926 191.002 446.752 189.714 446.288C188.13 445.655 185.982 445.767 184.926 444.916C184.496 444.499 184.179 443.98 184.005 443.407C183.939 443.334 183.939 443.253 183.906 443.136C184.048 442.795 184.17 442.446 184.272 442.091C186.467 436.466 188.661 431.484 191.779 426.805C191.861 427.359 191.904 427.919 191.907 428.48C191.87 429.972 191.667 431.681 192.656 432.701C193.809 434.064 195.824 433.967 196.722 431.98C197.253 430.877 197.29 429.546 197.888 428.437C198.06 428.104 198.26 427.787 198.485 427.487C198.845 428.615 198.477 430.383 198.111 431.669C197.177 435.148 194.494 437.488 193.427 441.062C193.126 442.582 194.05 443.207 194.975 443.025C194.807 444.209 194.606 445.357 194.769 446.506C195.323 449.461 197.533 450.871 199.914 450.051C199.978 451.089 200.041 452.128 200.402 453.014C201.124 455.027 203.037 456.509 204.956 455.738C205.699 455.384 206.338 454.844 206.811 454.171C207.895 456.587 208.216 460.332 210.991 460.675C211.849 460.904 212.775 460.563 213.471 459.804C213.953 460.05 214.463 460.239 214.989 460.365C216.012 460.455 217.006 459.946 217.867 459.21C220.748 456.607 220.529 452.006 219.447 448.705C219.447 448.625 219.414 448.589 219.414 448.507C219.513 448.457 219.612 448.486 219.711 448.435C223.284 446.682 220.818 442.003 218.905 440.36L218.674 440.103C220.794 438.185 219.117 435.27 217.006 433.73C216.61 433.451 216.28 433.084 215.884 432.806C216.394 432.325 216.743 431.697 216.879 431.009C217.247 429.321 216.094 428.039 215.005 427.472C214.324 427.167 213.617 426.92 212.893 426.736C213.047 426.471 213.121 426.168 213.104 425.862C213.087 425.557 212.981 425.263 212.798 425.017C212.008 423.976 210.653 423.761 209.465 423.89C209.036 423.976 208.64 424.1 208.176 424.23C207.78 423.629 206.493 423.648 205.798 423.763C203.947 423.963 202.524 424.64 201.072 423.993C199.785 423.368 199.194 421.984 198.57 420.483C198.342 419.86 198.156 419.222 198.013 418.573C201.03 414.83 204.144 411.357 207.392 407.95C207.665 409.055 207.784 410.192 207.746 411.329C207.707 413.705 206.969 418.289 209.844 418.019C210.301 417.909 210.723 417.683 211.068 417.364C211.429 418.651 211.888 419.969 212.711 420.885C214.062 422.629 217.364 422.997 218.265 420.124C218.48 419.274 218.512 418.388 218.361 417.524C218.209 416.661 217.877 415.839 217.385 415.113C216.628 413.948 214.815 412.495 215.577 411.648C215.709 411.473 216.039 411.517 216.601 411.577C216.883 411.651 217.17 411.7 217.459 411.726C217.93 413.507 218.708 415.192 219.76 416.704C221.801 419.539 224.207 421.893 226.514 424.378C227.865 425.8 229.776 428.086 231.796 426.3C232.175 425.921 232.42 425.429 232.493 424.898C233.615 425.661 234.77 426.461 236.123 426.435C238.073 426.506 238.806 423.934 238.679 421.937C238.663 421.83 238.663 421.722 238.679 421.615C239.966 422.24 241.352 422.492 242.448 420.886C244.34 417.505 243.463 411.529 240.659 409.781C240.461 409.642 240.23 409.546 240.032 409.407C240.221 409.144 240.346 408.841 240.398 408.523C240.766 406.754 239.68 405.223 238.492 404.547C237.733 404.187 236.908 404.236 236.081 404.205C236.041 403.912 235.901 403.643 235.685 403.443C234.827 402.651 233.705 402.531 232.649 402.324C234.202 402.116 235.525 401.49 236.387 400.271C236.674 399.806 236.877 399.294 236.986 398.759C238.539 398.631 240.159 398.335 241.484 397.227C242.874 396.273 243.706 394.213 243.048 392.676C243.88 392.412 244.639 391.958 245.266 391.35C247.718 388.834 247.23 385.549 244.591 383.824C244.083 383.482 243.527 383.216 242.941 383.037C245.192 381.507 247.741 379.744 248.245 376.352C248.613 374.744 248.155 373.105 247.133 372.21C244.79 370.494 241.749 371.143 239.004 372.124C239.341 371.468 239.534 370.748 239.571 370.012C239.709 367.665 237.5 366.094 235.714 366.448C234.669 366.619 233.681 367.044 232.836 367.683L232.803 367.727C232.81 365.153 230.893 365.441 228.939 367.14C227.051 368.59 225.559 370.722 224.364 373.022C223.805 371.997 222.747 372.192 221.852 373.213L221.687 373.432C222.186 371.971 222.157 370.567 220.572 369.934C220.373 369.852 220.161 369.807 219.945 369.802C220.743 368.027 221.475 366.099 221.083 364.211C220.625 362.33 218.641 362.384 217.384 363.404C217.37 363.429 217.352 363.45 217.329 363.467C217.306 363.483 217.28 363.494 217.252 363.499C217.354 362.402 217.588 361.292 217.227 360.325C216.44 358.159 214.029 357.575 212.373 359.201C212.189 359.377 212.023 359.57 211.876 359.778C209.269 358.894 207.11 362.625 206.541 365.541C205.914 364.845 205.188 364.441 204.295 364.98C202.343 366.196 201.642 369.047 201.47 371.437C201.419 371.999 201.418 372.565 201.466 373.127C201.123 373.234 200.813 373.425 200.564 373.684C200.314 373.943 200.135 374.261 200.041 374.607C199.039 378.817 201.739 382.707 203.02 385.745C203.376 386.616 203.672 387.512 203.905 388.424C203.153 387.858 202.239 387.548 201.298 387.54C200.816 387.546 200.351 387.72 199.983 388.031C199.615 388.342 199.366 388.771 199.278 389.246C199.225 389.832 199.35 390.421 199.637 390.936C199.916 391.667 200.292 392.356 200.756 392.986C201.35 393.726 201.908 394.51 202.567 395.243C202.332 395.306 202.116 395.426 201.938 395.592C200.911 396.789 201.964 398.525 202.523 399.55C202.868 400.054 203.279 400.51 203.744 400.906C203.609 402.207 205.718 404.472 206.344 405.008C206.676 405.316 207.029 405.6 207.4 405.859C204.219 409.098 201.171 412.483 198.221 415.978C198.052 416.215 197.864 416.437 197.658 416.642C197.383 416.488 197.096 416.358 196.8 416.252C196.374 416.084 195.974 415.856 195.612 415.577C194.16 414.608 193.075 412.673 194.038 410.6C194.437 409.672 195.597 408.461 196.095 407.241C196.204 406.899 196.237 406.538 196.193 406.182C196.148 405.825 196.026 405.483 195.836 405.179C196.468 403.783 197.991 402.573 198.458 400.995C198.528 400.692 198.513 400.376 198.415 400.082C198.316 399.787 198.138 399.526 197.9 399.326C198.131 398.859 198.398 398.348 198.631 397.88C199.693 395.996 200.098 392.816 197.619 393.124C197.487 393.139 197.388 393.19 197.256 393.204C197.694 389.98 199.324 385.502 195.758 384.601C195.495 384.562 195.228 384.564 194.966 384.606C195.432 383.027 196.031 381.354 195.639 379.708C195.216 377.06 192.44 377.279 190.785 378.503C190.418 378.766 190.085 379.072 189.791 379.415C189.401 377.045 188.514 374.849 186.366 374.96C182.334 375.477 180.471 380.342 180.03 384.692C179.997 384.897 179.997 385.058 179.964 385.262C179.859 385.224 179.746 385.209 179.634 385.218C178.479 385.061 177.286 386.076 176.523 387.162C174.798 389.922 175.383 393.558 176.269 396.317C176.302 396.434 176.368 396.507 176.401 396.624C175.408 397.214 174.974 398.749 175.169 399.934C175.326 400.716 175.664 401.451 176.156 402.079C176.532 402.574 177.018 402.975 177.575 403.253C177.538 403.551 177.572 403.854 177.675 404.136C177.777 404.419 177.946 404.673 178.165 404.878C179.056 405.868 180.508 406.514 181.298 407.313C181.75 407.895 182.157 408.509 182.516 409.152C181.059 410.274 180.063 412.151 180.785 414.164C181.932 417.86 185.296 420.231 188.635 419.83C190.287 419.651 191.943 418.266 193.199 418.05C193.727 417.992 194.255 418.337 194.618 418.901C194.816 419.202 194.915 419.473 195.047 419.7C192.03 423.524 189.112 427.538 186.887 432.081C186.09 433.615 185.359 435.222 184.628 436.829C183.039 437.804 181.586 437.64 180.399 436.481C179.213 435.082 179.649 432.743 179.423 430.556C179.296 429.567 178.924 428.625 178.339 427.817C177.712 427.281 176.788 426.979 175.994 427.388C175.835 426.713 175.466 426.105 174.942 425.652C173.886 424.801 172.432 425.038 171.834 426.309C171.108 425.503 170.283 424.909 169.227 424.862C167.575 424.638 166.25 425.908 166.114 427.692C165.292 427.653 164.48 427.882 163.799 428.344C161.647 429.823 160.58 433.637 162.161 435.798L162.227 435.872C160.869 437.104 160.169 439.391 162.349 439.799C163.233 439.911 164.13 439.8 164.96 439.477C164.603 440.332 164.443 441.257 164.491 442.183C164.491 442.636 164.638 443.078 164.912 443.44C165.185 443.803 165.569 444.066 166.006 444.19C166.633 444.322 167.328 444.128 167.956 443.939C168.094 443.883 168.226 443.814 168.352 443.735C168.345 446.309 170.524 447.119 173.038 445.561C173.263 445.41 173.473 445.239 173.667 445.051C174.148 445.171 174.648 445.192 175.137 445.111C175.626 445.031 176.093 444.851 176.51 444.582C177.139 444.153 177.571 443.342 177.936 442.619C178.766 440.881 178.673 438.518 180.16 438.72C180.832 438.724 181.491 438.902 182.074 439.236C182.503 439.391 182.899 439.911 183.361 439.7C183.095 440.373 182.795 441.088 182.562 441.797C182.481 441.839 182.413 441.902 182.364 441.979C181.797 444.172 179.78 444.912 178.255 446.605C177.331 447.622 176.63 448.821 176.197 450.125C176.123 450.326 176.067 450.534 176.032 450.746C174.906 451.993 173.679 453.774 174.336 455.231C174.48 455.497 174.669 455.735 174.897 455.935C174.619 457.006 174.538 458.118 174.657 459.218C174.72 460.578 174.914 462.005 175.507 462.825C174.019 463.267 172.872 459.652 170.426 459.675C170.112 459.628 169.79 459.654 169.487 459.749C169.183 459.845 168.905 460.008 168.674 460.226C166.463 459.621 164.765 463.946 166.51 466.29C166.905 466.72 167.424 467.016 167.995 467.135C167.947 467.443 167.98 467.758 168.092 468.049C168.719 468.907 169.808 468.668 170.702 468.21C171.229 469.118 172.451 469.186 173.311 468.691C174.106 468.123 174.604 467.064 175.234 466.232C175.465 465.845 176.062 465.379 176.161 465.407L176.854 465.211C176.314 469.014 176.101 472.857 176.22 476.697C176.405 481.823 177.317 486.791 178.495 491.569C179.671 496.669 181.642 501.442 184.407 505.405C185.198 506.527 186.054 507.64 186.91 508.672C186.985 508.789 187.098 508.877 187.23 508.922C187.362 508.966 187.506 508.964 187.636 508.915C188.892 509.022 188.895 508.378 188.302 507.879ZM213.536 395.503C213.616 393.432 214.324 391.435 215.566 389.776C215.721 389.551 215.899 389.343 216.096 389.155C215.859 391.392 215.755 393.615 215.617 395.801C215.549 396.692 215.513 397.622 215.445 398.514C215.181 398.784 214.882 399.017 214.65 399.243C214.581 399.185 214.534 399.105 214.518 399.016C213.921 397.938 213.585 396.735 213.536 395.503ZM216.588 403.577C215.923 403.114 215.362 402.518 214.941 401.825C214.792 401.58 214.66 401.326 214.545 401.064C214.644 401.093 214.809 401.035 214.908 401.064C215.469 400.963 215.667 400.941 216.263 400.877C217.436 400.731 218.62 400.697 219.799 400.776C221.649 400.898 224.489 401.717 227.329 402.214L226.735 402.278C224.553 402.755 222.105 403.905 220.221 404.068C218.768 404.065 217.71 404.18 216.588 403.577Z" fill="#31998C"/>
<path d="M199.193 482.073C197.396 482.139 195.597 482.078 193.808 481.889C188.102 481.398 183.023 479.818 177.301 477.164C166.744 472.595 157.303 465.789 149.631 457.216C150.481 457.687 151.228 458.229 152.095 458.765C153.224 459.611 154.374 459.604 155.541 459.661C156.47 459.734 157.472 460.326 158.58 460.387C160.267 460.346 161.297 458.707 160.786 456.969C162.111 456.23 162.919 454.671 162.69 452.85C162.426 451.359 161.579 449.97 160.632 448.653C160.368 448.342 160.107 448.031 159.861 447.784C160.884 447.523 161.825 446.939 161.729 445.634C161.681 443.342 159.637 441.308 157.649 440.189C156.852 439.731 156.004 439.366 155.124 439.103L155.166 439.035C155.729 437.229 153.283 435.745 151.75 435.449C150.466 435.102 149.138 434.943 147.808 434.977C147.657 434.651 147.396 434.388 147.07 434.237C145.244 433.041 143.06 433.507 141.65 434.383C139.855 435.415 138.345 437.542 136.742 437.906C136.021 438.001 135.289 437.912 134.613 437.648C134.495 437.638 134.381 437.6 134.281 437.537C134.064 437.146 133.824 436.767 133.562 436.403C129.861 430.081 126.772 424.245 124.665 417.758C125.255 418.097 125.82 418.477 126.355 418.896C127.747 420.054 129.222 421.534 130.936 421.36C133.1 421.289 134.525 419.297 133.31 416.948C132.66 415.613 131.421 414.577 130.815 413.173C130.628 412.759 130.476 412.33 130.361 411.89C131.705 412.395 133.111 414.076 134.057 415.393C136.664 418.899 136.873 423.214 139.469 426.917C140.69 428.347 141.977 427.938 142.502 426.921C143.503 427.972 144.443 429.027 145.658 429.737C148.888 431.434 151.892 430.392 152.903 427.509C153.939 428.23 154.975 428.951 156.09 429.274C158.548 430.102 161.398 429.397 162.109 426.992C162.331 426.018 162.298 425.004 162.012 424.047C165.127 424.834 168.932 427.347 171.347 424.964C172.211 424.32 172.582 423.182 172.384 421.949C172.981 421.675 173.543 421.332 174.059 420.926C174.917 420.019 175.178 418.692 175.125 417.318C174.816 412.618 170.274 409.365 166.319 407.911C166.243 407.85 166.183 407.854 166.107 407.793C166.133 407.661 166.235 407.588 166.262 407.456C167.282 402.737 160.974 401.562 157.972 402.146L157.554 402.172C157.323 398.712 153.288 398.115 150.234 398.964C149.67 399.129 149.074 399.169 148.51 399.335C148.438 398.488 148.102 397.684 147.55 397.036C146.221 395.416 144.133 395.548 142.775 396.158C141.971 396.577 141.204 397.064 140.484 397.614C140.348 397.269 140.114 396.971 139.811 396.757C139.507 396.543 139.148 396.423 138.777 396.411C137.193 396.38 135.968 397.507 135.195 398.736C134.954 399.21 134.773 399.681 134.549 400.219C133.68 400.143 132.728 401.383 132.316 402.13C131.113 404.042 130.686 405.905 128.978 406.8C127.414 407.554 125.653 407.076 123.756 406.54C122.991 406.288 122.244 405.985 121.519 405.633C120.227 399.945 119.266 394.368 118.467 388.715C119.724 389.287 120.896 390.029 121.95 390.92C124.182 392.746 127.989 396.898 129.893 393.956C130.133 393.438 130.235 392.867 130.19 392.298C131.687 392.925 133.286 393.479 134.777 393.385C137.453 393.412 140.288 390.545 138.232 387.528C137.585 386.684 136.766 385.986 135.831 385.48C134.895 384.974 133.863 384.672 132.802 384.594C131.124 384.438 128.377 385.071 128.145 383.709C128.079 383.45 128.369 383.17 128.849 382.681C129.131 382.468 129.394 382.232 129.636 381.975C131.685 382.868 133.874 383.395 136.104 383.533C140.338 383.723 144.387 383.205 148.488 382.88C150.858 382.664 154.471 382.567 154.292 379.3C154.216 378.654 153.932 378.051 153.482 377.581C155.053 377.089 156.683 376.591 157.677 375.284C159.212 373.482 157.316 370.848 155.321 369.467C155.207 369.402 155.104 369.32 155.015 369.224C156.578 368.469 157.862 367.34 157.157 365.089C155.364 360.745 149.017 357.082 145.244 358.435C144.963 358.519 144.698 358.666 144.416 358.75C144.308 358.373 144.115 358.026 143.85 357.737C142.444 356.056 140.17 355.937 138.633 356.559C137.719 357.011 137.144 357.834 136.493 358.596C136.185 358.413 135.823 358.342 135.47 358.398C134.071 358.617 133.112 359.596 132.12 360.444C133.09 358.809 133.491 357.078 132.98 355.341C132.753 354.718 132.418 354.14 131.99 353.634C133.037 352.059 133.974 350.296 133.917 348.201C134.055 346.16 132.72 343.819 130.763 343.288C131.138 342.298 131.277 341.234 131.17 340.18C130.621 335.954 127.128 333.946 123.501 335.159C122.793 335.385 122.122 335.715 121.511 336.137C121.749 332.844 121.989 329.092 119.141 326.06C117.887 324.501 115.983 323.703 114.363 324.003C110.967 324.939 109.297 328.322 108.164 331.672C107.793 330.858 107.253 330.132 106.58 329.543C104.451 327.645 101.293 328.566 100.287 330.533C99.6634 331.657 99.3235 332.916 99.2968 334.202L99.3136 334.268C96.8693 332.325 95.7001 334.367 95.8466 337.502C95.8067 340.389 96.7119 343.413 98.0012 346.281C96.6049 346.042 95.9944 347.195 96.2931 348.815L96.3766 349.137C95.3618 347.563 94.0036 346.534 92.2093 347.566C91.9809 347.693 91.7778 347.861 91.6104 348.063C90.5214 345.968 89.237 343.82 87.1462 342.773C85.0121 341.793 83.5713 343.72 83.5954 345.685C83.6088 345.717 83.6149 345.751 83.6132 345.785C83.6116 345.82 83.6022 345.853 83.5858 345.883C82.6192 344.961 81.7378 343.903 80.5472 343.519C77.893 342.638 75.5236 344.493 75.8249 347.292C75.8539 347.6 75.9124 347.903 75.9994 348.199C73.1944 350.014 75.1226 354.876 77.4692 357.612C76.3357 357.684 75.4051 358.07 75.2454 359.326C74.9335 362.098 77.1178 364.911 79.2638 366.874C79.76 367.345 80.2968 367.772 80.8679 368.149C80.7116 368.555 80.6605 368.995 80.7194 369.427C80.7783 369.858 80.9453 370.268 81.2048 370.618C84.4567 374.739 90.1891 375.098 94.0438 376.165C95.1413 376.482 96.2156 376.873 97.259 377.338C96.1538 377.627 95.1706 378.263 94.454 379.153C94.0976 379.617 93.9131 380.19 93.932 380.775C93.9509 381.359 94.172 381.919 94.5576 382.359C95.0758 382.851 95.7305 383.175 96.436 383.289C97.3408 383.575 98.2802 383.736 99.2284 383.768C100.379 383.761 101.546 383.818 102.739 383.742C102.622 384.014 102.574 384.309 102.598 384.604C102.964 386.482 105.408 386.786 106.804 387.025C107.543 387.077 108.286 387.03 109.012 386.886C110.148 387.994 113.89 387.691 114.871 387.498C115.413 387.414 115.949 387.293 116.475 387.135C117.164 392.598 118.092 398.047 119.197 403.483C119.295 403.822 119.365 404.169 119.405 404.519C119.052 404.665 118.712 404.84 118.388 405.042C117.908 405.321 117.39 405.53 116.851 405.664C114.838 406.316 112.181 405.895 110.932 403.416C110.349 402.339 110.07 400.324 109.284 398.932C109.04 398.571 108.721 398.267 108.349 398.042C107.976 397.817 107.559 397.675 107.127 397.626C106.274 395.976 106.269 393.616 105.118 391.983C104.883 391.688 104.571 391.464 104.217 391.336C103.863 391.208 103.48 391.181 103.111 391.257C102.841 390.684 102.555 390.046 102.286 389.475C101.293 387.046 98.5711 384.269 96.999 386.859C96.9132 386.996 96.8868 387.129 96.801 387.265C94.062 384.423 91.0283 379.501 87.4871 382.216C87.2526 382.438 87.0531 382.694 86.8954 382.975C85.7447 381.344 84.6035 379.515 82.7416 378.649C79.9036 377.059 78.0226 379.866 77.9431 382.362C77.9171 382.908 77.9574 383.456 78.0629 383.993C75.5137 382.581 72.7568 381.772 71.2464 383.9C68.7035 388.124 71.9315 393.559 75.7387 397.252C75.9083 397.438 76.0611 397.559 76.2308 397.745C76.1146 397.817 76.0153 397.912 75.9397 398.026C74.9207 399.008 74.988 400.905 75.449 402.45C76.7766 406.168 80.6768 408.347 83.9683 409.58C84.1046 409.638 84.2237 409.63 84.36 409.687C84.1739 411.075 85.3081 412.643 86.5825 413.35C87.4447 413.789 88.3977 414.021 89.3654 414.026C90.1195 414.04 90.8666 413.88 91.5493 413.56C92.0744 414.182 92.8835 414.262 93.5399 414.22C95.1506 414.118 96.8594 413.223 98.215 413.072C99.108 413.08 99.9991 413.155 100.881 413.297C100.853 415.527 101.889 417.887 104.346 418.715C108.726 420.404 113.513 418.987 115.643 415.509C116.717 413.802 116.645 411.184 117.384 409.826C117.728 409.28 118.453 409.037 119.262 409.118C119.697 409.155 120.029 409.266 120.343 409.311C121.712 415.059 123.337 420.857 125.985 426.393C126.845 428.307 127.823 430.21 128.802 432.115C128.535 434.36 127.284 435.619 125.29 435.877C123.066 435.952 121.168 433.777 118.917 432.346C117.881 431.723 116.705 431.369 115.497 431.316C114.516 431.51 113.533 432.162 113.323 433.224C112.56 432.868 111.705 432.762 110.879 432.92C109.275 433.283 108.407 434.846 109.166 436.372C107.853 436.455 106.667 436.792 105.827 437.763C104.372 439.166 104.582 441.382 106.177 442.854C105.522 443.607 105.128 444.552 105.055 445.548C104.844 448.708 107.67 452.594 110.916 452.716L111.036 452.709C111.186 454.928 112.836 457.315 114.864 455.547C115.635 454.79 116.205 453.853 116.522 452.819C117.067 453.802 117.825 454.65 118.742 455.301C119.173 455.643 119.705 455.835 120.255 455.847C120.806 455.86 121.345 455.692 121.792 455.37C122.391 454.875 122.727 454.065 123.02 453.326C123.071 453.152 123.106 452.974 123.125 452.795C125.57 454.738 127.98 453.274 128.39 449.708C128.415 449.381 128.412 449.052 128.378 448.725C128.854 448.359 129.25 447.898 129.542 447.373C129.833 446.847 130.013 446.267 130.071 445.668C130.136 444.746 129.689 443.726 129.276 442.834C128.247 440.736 125.929 439.047 127.239 437.785C127.748 437.148 128.414 436.654 129.172 436.351C129.642 436.059 130.434 436.075 130.582 435.475C131.021 436.234 131.477 437.058 131.976 437.813C131.954 437.922 131.963 438.034 132 438.139C133.66 440.329 132.846 442.806 133.31 445.531C133.581 447.175 134.195 448.745 135.11 450.137C135.245 450.361 135.401 450.571 135.576 450.764C135.916 452.775 136.687 455.283 138.568 455.754C138.929 455.818 139.298 455.816 139.658 455.751C140.468 456.821 141.465 457.735 142.602 458.449C143.943 459.413 145.447 460.301 146.674 460.355C145.975 462.104 141.671 460.475 139.853 462.819C139.572 463.083 139.354 463.408 139.217 463.769C139.079 464.13 139.025 464.517 139.059 464.901C136.818 466.551 139.657 471.419 143.201 471.523C143.907 471.471 144.579 471.2 145.122 470.746C145.379 471.023 145.704 471.228 146.065 471.34C147.352 471.389 147.946 470.172 148.182 468.977C149.442 469.159 150.427 468.048 150.604 466.857C150.661 465.673 150.028 464.402 149.71 463.176C149.516 462.664 149.521 461.746 149.624 461.674L149.96 460.866C153.175 464.24 156.675 467.33 160.421 470.104C165.439 473.785 170.852 476.655 176.285 479.13C182.023 481.848 188.047 483.564 193.899 483.915C195.56 484.006 197.265 484.029 198.892 483.992C199.06 484.009 199.229 483.968 199.371 483.875C199.512 483.783 199.618 483.645 199.67 483.484C200.725 482.369 200.114 481.883 199.193 482.073ZM111.252 373.503C109.342 371.868 107.974 369.691 107.329 367.261C107.232 366.944 107.168 366.619 107.138 366.289C109.089 368.198 111.125 369.971 113.101 371.747C113.899 372.483 114.755 373.215 115.553 373.952C115.61 374.407 115.608 374.866 115.649 375.257C115.541 375.279 115.43 375.262 115.333 375.211C113.858 374.967 112.461 374.382 111.252 373.502V373.503ZM121.231 376.674C120.29 376.959 119.3 377.044 118.324 376.923C117.98 376.879 117.639 376.813 117.303 376.725C117.406 376.653 117.474 376.452 117.577 376.38C117.904 375.769 118.033 375.564 118.419 374.95C119.162 373.724 120.021 372.572 120.984 371.51C122.492 369.841 125.408 367.755 128.019 365.427C127.889 365.631 127.761 365.836 127.632 366.041C126.444 368.476 125.695 371.67 124.433 373.586C123.336 374.966 122.649 376.058 121.231 376.673V376.674Z" fill="#43C3B4"/>
<path d="M174.929 468.148C176.051 466.69 177.246 465.601 178.398 463.97C178.431 463.923 178.464 463.835 178.5 463.788C181.623 461.762 185.331 459.447 188.409 456.754C193.264 452.472 197.443 447.103 201.2 441.453C206.013 434.566 209.665 426.698 212.235 418.389C213.216 414.759 216.451 406.823 214.149 403.977C211.905 402.513 206.144 406.54 203.915 408.106C194.963 414.784 187.664 423.428 182.58 433.372C179.223 440.23 178.177 448.332 179.233 455.685C179.365 457.352 179.572 459.43 179.216 461.036C178.96 461.912 178.577 462.745 178.077 463.508C178.014 463.55 177.957 463.6 177.906 463.657C177.864 463.723 177.841 463.799 177.84 463.877C177.171 464.767 176.444 465.612 175.662 466.406C175.458 466.644 175.255 466.924 175.051 467.163C175.131 465.72 175.212 464.277 175.257 462.796C175.26 456.605 174.606 450.544 174.021 444.475C173.761 441.267 173.465 438.023 173.101 434.829C175.383 432.288 177.773 429.94 179.843 427.173C184.193 421.425 187.995 415.282 191.198 408.825C195.319 399.967 200.342 391.071 201.67 381.077C201.74 378.962 201.925 375.441 200.108 374.593C199.69 374.482 199.243 374.711 198.83 374.935L196.149 376.437C193.674 377.69 191.417 379.334 189.465 381.305C181.517 389.462 175.512 401.945 173.592 413.999C172.814 419.453 173.008 424.944 172.472 430.408V430.45C172.357 429.75 172.241 429.049 172.092 428.396C170.961 422.822 169.243 417.454 168.111 411.88C167.51 409.055 166.943 406.184 166.342 403.36V403.318C166.356 402.052 166.34 401.044 166.634 399.993C167.195 398.232 168.726 396.381 169.874 394.456C172.473 390.1 174.232 385.187 176.271 380.488C179.505 372.551 182.494 364.437 184.089 355.881C184.504 353.828 184.783 351.75 184.924 349.66C185.189 346.803 183.186 347.328 181.644 348.464C178.555 350.588 175.812 353.177 173.514 356.14C171.479 358.945 170.148 362.368 168.85 365.703C166.954 370.678 165.13 375.812 164.419 381.131C164.105 384.194 164.155 387.283 164.569 390.334C164.785 392.958 165.518 395.343 166.147 397.785C166.292 398.144 166.267 398.737 166.444 399.092C166.233 399.556 166.078 400.043 165.982 400.544L165.891 401.314C165.443 399.354 164.995 397.435 164.478 395.526C163.158 391.157 161.533 387.208 160.181 383.012C158.909 379.436 157.396 375.978 156.055 372.454C156.08 372.376 156.113 372.3 156.154 372.229C156.296 371.933 156.453 371.645 156.625 371.365C157.676 369.832 158.973 368.56 160.094 367.103C161.589 365.215 163.155 363.402 164.509 361.364C165.929 359.093 167.211 356.739 168.348 354.314C171.07 348.974 172.743 343.061 173.929 337.088C174.345 334.968 174.519 332.88 174.8 330.989C174.925 330.131 175.049 329.228 175.104 328.378C175.098 328 175.09 327.496 174.774 327.328C174.355 327.132 173.982 327.646 173.674 327.941C172.89 328.722 172.104 329.46 171.317 330.157C169.195 331.877 166.895 333.327 164.987 335.44C161.382 339.286 158.809 343.983 157.51 349.092C156.64 353.169 156.881 357.306 156.877 361.35C156.847 363.713 156.851 366.112 156.435 368.233C156.244 369.312 155.949 370.363 155.69 371.451C154.848 369.188 154.128 366.882 153.531 364.542C153.419 364.068 153.342 363.586 153.3 363.1C153.39 362.937 153.447 362.757 153.465 362.572C153.525 362.157 153.623 361.749 153.757 361.353C154.379 359.078 155.14 356.826 155.483 354.506C155.726 352.366 155.45 350.256 155.345 348.165C155.085 344.315 154.559 340.489 153.771 336.712C151.605 327.824 148.763 319.116 145.269 310.662C144.912 310.035 144.378 307.077 143.594 307.899C142.756 309.698 142.304 311.781 141.676 313.678C139.018 322.926 139.422 332.81 141.681 341.559C142.359 344.132 143.188 346.663 144.163 349.139C145.209 351.608 146.598 353.82 147.849 356.093C149.029 358.249 150.311 360.35 151.934 362.023C152.126 362.24 152.338 362.436 152.568 362.611C152.909 365.293 153.522 367.933 154.397 370.491C150.426 365.219 147.977 357.549 142.37 354.057C139.846 352.379 136.986 351.462 134.065 350.974C131.854 350.487 129.576 350.383 127.331 350.669C126.225 350.904 125.044 350.811 124.014 351.457C122.618 353.036 124.529 355.388 125.414 356.447C127.11 358.364 129.179 359.767 131.178 361.138C132.968 362.369 134.688 363.651 136.578 364.7C136.022 368.861 135.397 373.115 136.16 377.308C137.579 385.707 141.902 393.332 148.305 396.799C150.265 397.838 152.453 398.046 154.575 398.431C155.823 398.631 157.007 399.119 158.032 399.857C159.965 401.405 161.967 402.902 164.168 403.908C164.335 404 164.511 404.075 164.692 404.132C165.451 408.03 166.138 411.979 166.965 415.868C168.164 421.349 169.674 426.703 170.46 432.366C170.619 433.608 170.778 434.85 170.902 436.054C168.196 429.684 166.21 422.751 162.682 416.998C160.34 413.256 157.671 409.729 154.706 406.458C152.696 404.415 150.612 402.129 147.996 401.222C143.603 399.797 138.799 400.914 134.397 401.049C133.191 401.55 134.195 403.561 134.452 404.411C136.228 409.139 139.305 412.722 142.344 416.183C145.349 419.692 148.185 423.392 151.495 426.48C153.965 429.008 156.94 430.667 159.947 432.154C162.116 433.29 164.151 434.698 166.219 436.06C167.763 437.098 169.417 437.961 171.152 438.632C171.404 441.335 171.621 444.002 171.839 446.71C172.305 451.911 172.73 456.654 172.815 461.908C172.827 464.77 172.7 467.609 172.504 470.458C170.293 468.863 169.235 465.68 168.007 462.688C166.238 458.464 164.024 454.553 161.742 450.736C159.425 446.923 156.839 443.611 154.527 440.05C151.357 435.006 148.017 430.111 144.2 425.787C142.434 423.837 140.361 422.223 137.99 421.409C136.346 420.579 136.196 422.032 136.431 423.684C137.913 431.612 138.398 440.052 141.429 447.265C142.614 450.166 144.017 452.974 145.624 455.665C146.731 457.579 147.873 459.529 149.353 461.054C153.126 464.837 157.781 467.363 162.558 468.904C164.232 469.518 166.002 469.531 167.772 469.543C168.619 469.568 169.466 469.509 170.301 469.367L170.474 469.344C170.821 469.827 171.224 470.267 171.675 470.655C171.915 470.867 172.173 471.057 172.447 471.224C172.017 476.546 171.223 481.832 170.069 487.046C169.733 485.571 169.22 484.141 168.543 482.789C167.778 481.435 166.687 480.295 165.367 479.472C162.324 477.906 159.199 477.699 156.259 476.078C153.707 474.824 151.771 473.066 149.553 471.051C148.144 469.769 146.734 468.36 144.989 467.713C142.059 466.679 138.796 468.639 136.3 470.873C135.378 471.757 134.421 472.645 133.57 473.603C132.79 474.678 133.398 475.817 134.069 476.526C135.48 477.976 137.261 478.745 139.074 479.341C141.208 480.044 143.306 480.856 145.357 481.772C147.805 482.997 150.324 484.297 153.187 483.318C154.844 482.84 156.322 481.924 157.807 481.637C160.957 481.293 163.573 484.265 166.041 486.752C166.801 487.504 167.724 488.071 168.739 488.407C169.072 488.531 169.43 488.569 169.781 488.518C168.876 492.558 168.041 496.631 166.857 500.582C166.725 501.021 166.725 500.937 166.56 501.423V501.507C166.56 501.549 166.56 501.549 166.527 501.596V501.638C166.494 501.811 166.567 501.968 166.706 501.992C167.112 502.011 167.516 501.927 167.881 501.749C168.37 501.977 168.922 499.627 169.055 499.314C169.812 496.811 170.464 494.237 171.116 491.706C171.868 491.679 172.608 491.507 173.294 491.199C173.924 490.854 174.501 490.421 175.007 489.912C175.079 490.071 175.321 490.038 175.528 489.968C176.635 489.733 177.782 489.872 179.029 489.786C180.47 489.66 181.902 489.451 183.319 489.159C186.809 488.348 190.146 486.715 193.374 484.718C198.951 481.53 203.768 477.167 207.49 471.932C208.81 469.942 210.234 467.895 210.818 465.457C210.914 464.938 211.111 464.28 210.793 463.902C210.474 463.524 209.924 463.767 209.506 463.698C208.728 463.715 207.949 463.666 207.18 463.551C204.362 463.049 201.511 462.594 198.575 463.373C192.564 464.822 184.599 471.97 181.306 478.483C179.755 481.305 178.769 484.555 177.039 486.939C176.094 488.153 175.006 489.249 173.797 490.201C173.093 490.681 172.268 490.953 171.417 490.988L171.348 490.998C171.608 489.952 171.868 488.863 172.128 487.817C173.503 481.331 174.438 474.76 174.929 468.148ZM160.195 400.616C160.157 400.57 160.109 400.534 160.055 400.508C160.083 400.125 159.763 399.663 159.758 399.243C159.41 397.058 159.096 394.827 158.3 392.829C156.704 388.539 154.526 384.75 152.417 380.868C150.412 377.055 147.997 373.593 145.753 369.981L144.684 368.232C145.487 368.544 146.255 368.859 147.058 369.173C149.434 370.155 151.777 371.311 154.314 371.766C154.384 371.799 154.453 371.789 154.523 371.822C154.593 371.854 154.629 371.933 154.699 371.966L154.768 371.957C155.533 374.211 156.402 376.41 157.166 378.623C158.326 381.708 159.169 384.458 160.123 387.613C161.146 390.843 162.163 393.611 162.98 396.952C163.464 398.95 163.879 401 164.259 403.012C162.834 402.339 161.474 401.537 160.195 400.616Z" fill="#98DED6"/>
<path d="M187.473 471.888C188.439 471.836 189.297 471.996 190.339 471.881C190.369 471.878 190.415 471.856 190.445 471.853C192.38 472.649 194.645 473.635 196.81 474.097C200.24 474.81 203.817 474.646 207.337 474.12C211.718 473.605 216.024 471.996 220.083 469.582C221.802 468.449 225.975 466.576 226.16 463.987C225.854 462.067 222.177 460.734 220.75 460.222C215.088 458.348 208.98 458.294 203.286 460.067C199.467 461.375 196.062 464.537 193.731 468.519C193.162 469.362 192.469 470.436 191.738 470.981C191.327 471.24 190.868 471.413 190.389 471.491C190.35 471.476 190.309 471.468 190.268 471.466C190.226 471.473 190.187 471.497 190.162 471.532C189.574 471.572 188.983 471.559 188.397 471.492C188.232 471.489 188.05 471.506 187.885 471.503C188.451 470.881 189.017 470.259 189.584 469.6C191.885 466.742 193.887 463.581 195.92 460.453C197.012 458.827 198.106 457.164 199.154 455.487C200.963 455.578 202.74 455.817 204.551 455.688C208.335 455.444 212.071 454.711 215.667 453.506C220.518 451.7 225.724 450.374 229.938 446.495C230.75 445.556 232.128 444.032 231.753 442.634C231.623 442.382 231.406 442.186 231.142 442.083L229.569 441.291C228.234 440.522 226.758 440.027 225.229 439.835C219.19 439.198 212.278 441.635 207.075 446.139C204.755 448.227 202.789 450.87 200.557 453.098L200.542 453.117C200.758 452.73 200.974 452.342 201.16 451.958C202.802 448.757 204.145 445.325 205.786 442.124C206.607 440.486 207.459 438.846 208.28 437.207L208.295 437.187C208.67 436.662 209.124 436.199 209.641 435.813C210.507 435.311 211.775 435.304 212.924 435.051C215.526 434.481 218.017 433.185 220.535 432.145C224.708 430.272 228.853 428.181 232.635 425.113C233.571 424.378 234.449 423.572 235.261 422.702C236.423 421.529 235.469 420.662 234.463 420.332C232.572 419.612 230.554 419.285 228.533 419.371C226.721 419.538 224.945 420.382 223.214 421.203C220.649 422.45 218.051 423.81 215.807 425.873C214.507 427.169 213.377 428.626 212.445 430.207C211.554 431.539 210.945 433.047 210.276 434.523C210.198 434.77 209.968 435.03 209.904 435.293C209.646 435.393 209.405 435.534 209.19 435.708L208.869 436.013C209.427 434.858 209.97 433.725 210.484 432.556C211.606 429.807 212.457 427.082 213.503 424.395C214.349 422.038 215.06 419.602 215.861 417.231C215.899 417.209 215.94 417.193 215.982 417.183C216.145 417.125 216.312 417.079 216.482 417.045C217.449 416.919 218.413 417.051 219.378 416.999C220.649 417.005 221.919 416.937 223.182 416.795C224.568 416.532 225.931 416.154 227.255 415.667C230.269 414.71 233.099 412.905 235.766 410.803C236.711 410.054 237.552 409.186 238.361 408.469C238.728 408.141 239.109 407.793 239.446 407.431C239.535 407.346 239.605 407.242 239.651 407.126C239.696 407.011 239.716 406.888 239.71 406.764C239.624 406.441 239.292 406.472 239.066 406.438C238.479 406.363 237.907 406.269 237.35 406.154C235.907 405.773 234.497 405.168 232.99 405.086C230.184 404.867 227.391 405.631 225.087 407.248C223.244 408.649 221.799 410.693 220.296 412.561C219.407 413.635 218.517 414.746 217.572 415.495C217.099 415.887 216.597 416.209 216.094 416.568C216.595 415.199 217.16 413.603 217.843 412.179C217.974 411.904 218.124 411.638 218.291 411.384C218.39 411.357 218.479 411.305 218.55 411.231C218.722 411.077 218.911 410.943 219.113 410.83C220.194 410.125 221.318 409.507 222.31 408.625C223.196 407.771 223.875 406.643 224.613 405.619C225.971 403.651 227.193 401.592 228.269 399.457C230.797 394.027 232.952 388.432 234.721 382.71C234.818 382.223 235.715 380.56 235.113 380.505C234.127 380.872 233.183 381.584 232.242 382.111C227.8 384.91 224.282 389.699 221.889 394.992C221.18 396.584 220.554 398.212 220.014 399.869C219.494 401.589 219.198 403.38 218.828 405.123C218.439 406.764 218.219 408.441 218.173 410.127C218.165 410.335 218.173 410.543 218.195 410.75C217.305 412.226 216.557 413.784 215.961 415.403C216.415 410.767 218.336 405.867 217.508 401.147C217.162 399.045 216.486 397.011 215.507 395.12C214.882 393.72 214.062 392.416 213.07 391.247C212.564 390.742 212.15 390.045 211.521 389.772C210.405 389.728 210.256 391.874 210.198 392.853C210.183 394.65 210.331 396.444 210.639 398.215C210.86 399.775 211.035 401.321 211.362 402.852C209.606 404.466 207.79 406.086 206.521 408.444C203.94 413.11 202.745 419.028 203.884 424.178C204.24 425.744 204.992 427.053 205.652 428.407C206.058 429.214 206.322 430.085 206.433 430.981C206.55 432.759 206.824 434.524 207.253 436.253C207.281 436.387 207.32 436.519 207.368 436.647C206.207 438.867 205.001 441.073 203.87 443.327C202.289 446.524 200.872 449.833 199.067 452.885C198.666 453.546 198.265 454.208 197.865 454.832C199.206 450.39 201.028 446.087 201.828 441.475C202.335 438.402 202.633 435.299 202.721 432.186C202.718 430.128 202.778 427.917 202.124 426.048C200.989 422.955 198.754 420.809 197.036 418.431C196.394 417.994 196.027 419.48 195.809 420.015C194.726 423.183 194.56 426.543 194.426 429.827C194.261 433.113 193.962 436.394 194.069 439.654C194.066 442.19 194.577 444.604 195.164 446.959C195.563 448.686 195.811 450.464 196.088 452.239C196.286 453.569 196.591 454.88 197.001 456.161C196.093 457.549 195.186 458.9 194.262 460.272C192.507 462.933 190.906 465.359 188.988 467.833C187.93 469.162 186.827 470.403 185.695 471.61C185.449 469.648 186.231 467.591 186.877 465.529C187.739 462.574 188.429 459.571 188.942 456.536C189.48 453.491 189.731 450.528 190.177 447.602C190.893 443.531 191.356 439.419 191.563 435.29C191.655 433.44 191.409 431.588 190.837 429.826C190.523 428.532 189.926 429.12 189.402 430.013C187.019 434.496 184.068 438.664 182.538 443.675C181.899 445.71 181.388 447.782 181.007 449.879C180.669 451.376 180.472 452.902 180.418 454.436C180.479 458.177 181.185 461.879 182.505 465.379C182.934 466.516 183.519 467.588 184.243 468.564C184.545 469.033 184.887 469.475 185.266 469.884L185.34 469.969C185.291 470.391 185.28 470.816 185.307 471.24C185.319 471.472 185.346 471.702 185.388 471.931C183.297 474.109 181.03 476.112 178.612 477.921C179.043 477.021 179.379 476.079 179.614 475.109C179.827 474.023 179.837 472.907 179.643 471.817C179.072 469.408 177.965 467.58 177.453 465.201C176.952 463.208 176.871 461.322 176.779 459.162C176.722 457.789 176.711 456.357 176.291 455.091C175.565 452.99 173.601 452.086 171.825 451.735C171.148 451.615 170.464 451.531 169.777 451.483C169.083 451.547 168.89 452.41 168.881 453.109C168.92 454.507 169.208 455.887 169.732 457.184C170.27 458.696 170.777 460.212 171.209 461.789C171.681 463.712 172.152 465.708 173.601 466.843C174.406 467.54 175.305 467.935 175.975 468.627C177.295 470.214 177.183 473.036 177.196 475.552C177.205 476.323 177.342 477.087 177.603 477.812C177.678 478.043 177.798 478.257 177.957 478.441C176.113 479.805 174.285 481.223 172.369 482.392C172.156 482.522 172.186 482.483 171.943 482.615L171.913 482.655C171.897 482.674 171.897 482.674 171.867 482.677L171.852 482.697C171.813 482.728 171.786 482.77 171.775 482.818C171.763 482.866 171.768 482.916 171.788 482.961C171.921 483.181 172.105 483.365 172.324 483.5C172.424 483.877 173.506 483.097 173.672 483.027C174.889 482.29 176.092 481.462 177.279 480.655C177.553 481.039 177.897 481.368 178.291 481.627C178.643 481.812 179.024 481.932 179.418 481.982C179.385 482.096 179.49 482.213 179.595 482.297C180.101 482.802 180.484 483.501 180.988 484.153C181.57 484.882 182.19 485.579 182.846 486.242C187.126 490.009 192.705 491.96 198.4 491.682C199.639 491.494 200.938 491.338 202.065 490.535C202.294 490.349 202.613 490.154 202.633 489.803C202.652 489.452 202.354 489.259 202.221 488.996C201.915 488.563 201.64 488.11 201.396 487.639C200.515 485.845 199.604 484.055 198.203 482.788C195.387 480.125 189.716 479.012 186.05 480.195C184.415 480.64 182.834 481.594 181.293 481.736C180.47 481.772 179.646 481.674 178.854 481.447C178.372 481.249 177.957 480.917 177.66 480.49L177.63 480.457C178.117 480.118 178.62 479.759 179.107 479.42C182.092 477.136 184.89 474.618 187.473 471.888ZM206.969 432.531C206.972 432.488 206.967 432.445 206.956 432.404C207.109 432.243 207.16 431.852 207.313 431.654C208.05 430.463 208.663 429.2 209.143 427.884C210.132 425.018 210.714 422.061 211.356 419.098C212.013 416.227 212.384 413.288 212.874 410.376L213.119 408.976C213.307 409.565 213.482 410.136 213.669 410.725C214.204 412.495 214.662 414.327 215.455 415.944C215.47 415.998 215.499 416.032 215.513 416.086C215.528 416.14 215.513 416.196 215.526 416.251L215.556 416.284C215.009 417.749 214.521 419.246 213.989 420.692C213.283 422.76 212.581 424.497 211.77 426.482C210.959 428.542 210.316 430.384 209.384 432.381C208.825 433.571 208.221 434.748 207.618 435.888C207.328 434.785 207.111 433.663 206.969 432.531Z" fill="#42C2B3"/>
<path fill-rule="evenodd" clip-rule="evenodd" d="M144.102 486.528H210.033C210.033 486.528 205.499 495.199 201.188 503.447C198.884 507.852 195.418 511.542 191.167 514.117C186.915 516.692 182.039 518.054 177.068 518.054C172.097 518.054 167.222 516.692 162.97 514.117C158.718 511.542 155.252 507.852 152.949 503.447C148.636 495.198 144.102 486.528 144.102 486.528Z" fill="#DCB2F0"/>
<mask id="mask0_309_809" style="mask-type:luminance" maskUnits="userSpaceOnUse" x="144" y="486" width="67" height="33">
<path d="M144.102 486.528H210.033C210.033 486.528 205.499 495.199 201.188 503.447C198.884 507.852 195.418 511.542 191.167 514.117C186.915 516.692 182.039 518.054 177.068 518.054C172.097 518.054 167.222 516.692 162.97 514.117C158.718 511.542 155.252 507.852 152.949 503.447C148.636 495.198 144.102 486.528 144.102 486.528Z" fill="white"/>
</mask>
<g mask="url(#mask0_309_809)">
<path fill-rule="evenodd" clip-rule="evenodd" d="M202.739 486.526C191.673 486.115 152.883 484.648 143.624 486.526C139.758 487.313 147.181 497.812 147.181 497.812C147.181 497.812 200.769 490.875 210.028 488.994C212.541 488.484 205.303 486.623 202.739 486.526Z" fill="black" fill-opacity="0.2"/>
</g>
<path fill-rule="evenodd" clip-rule="evenodd" d="M212.674 479.319H141.46V479.329C141.46 480.598 141.71 481.855 142.195 483.028C142.681 484.2 143.393 485.266 144.29 486.163C145.187 487.06 146.253 487.772 147.425 488.258C148.598 488.743 149.855 488.993 151.124 488.993H203.01C204.279 488.993 205.535 488.743 206.708 488.258C207.881 487.772 208.946 487.06 209.843 486.163C210.741 485.266 211.453 484.2 211.938 483.028C212.424 481.855 212.674 480.598 212.674 479.329V479.319Z" fill="#167FFC"/>
<path fill-rule="evenodd" clip-rule="evenodd" d="M507.151 156.737C507.151 152.171 505.337 147.792 502.108 144.563C498.879 141.334 494.499 139.52 489.933 139.52H401.257C396.691 139.52 392.311 141.334 389.082 144.563C385.853 147.792 384.039 152.171 384.039 156.737V156.748C384.039 161.314 385.853 165.693 389.082 168.922C392.311 172.151 396.691 173.965 401.257 173.964H489.933C494.499 173.965 498.879 172.151 502.108 168.922C505.337 165.693 507.151 161.314 507.151 156.748V156.737Z" fill="#167FFC"/>
<path fill-rule="evenodd" clip-rule="evenodd" d="M453.034 163.455C452.826 163.727 452.323 163.591 451.636 163.08C450.782 162.397 450.02 161.606 449.37 160.727L445.171 155.259C444.458 154.347 443.852 153.357 443.365 152.307C442.972 151.412 442.87 150.756 443.077 150.485C443.285 150.214 443.788 150.349 444.475 150.86C445.329 151.543 446.091 152.334 446.742 153.213L450.94 158.682C451.653 159.593 452.259 160.584 452.746 161.634C453.138 162.528 453.241 163.185 453.034 163.455Z" fill="black"/>
<path fill-rule="evenodd" clip-rule="evenodd" d="M452.788 150.447C452.996 150.718 452.892 151.374 452.499 152.269C452.013 153.319 451.407 154.309 450.693 155.22L446.495 160.689C445.845 161.568 445.083 162.359 444.229 163.042C443.542 163.553 443.039 163.688 442.83 163.417C442.622 163.146 442.726 162.491 443.119 161.596C443.606 160.546 444.212 159.555 444.925 158.644L449.123 153.175C449.774 152.296 450.535 151.506 451.389 150.823C452.076 150.311 452.58 150.176 452.788 150.447Z" fill="black"/>
<path fill-rule="evenodd" clip-rule="evenodd" d="M455.013 156.667C455.013 157.051 454.584 157.419 453.82 157.69C452.889 157.987 451.917 158.13 450.94 158.114H445.005C444.028 158.13 443.056 157.987 442.125 157.69C441.362 157.419 440.933 157.051 440.933 156.667C440.933 156.284 441.362 155.916 442.125 155.644C443.056 155.348 444.028 155.205 445.005 155.221H450.942C451.918 155.205 452.891 155.348 453.821 155.644C454.585 155.916 455.014 156.284 455.014 156.667H455.013ZM431.645 163.455C431.437 163.727 430.933 163.591 430.246 163.08C429.392 162.397 428.631 161.606 427.98 160.727L423.782 155.259C423.069 154.347 422.463 153.357 421.975 152.307C421.583 151.412 421.48 150.756 421.688 150.485C421.896 150.214 422.399 150.349 423.086 150.86C423.94 151.543 424.702 152.334 425.352 153.213L429.55 158.682C430.264 159.593 430.87 160.584 431.356 161.634C431.749 162.528 431.851 163.185 431.645 163.455Z" fill="black"/>
<path fill-rule="evenodd" clip-rule="evenodd" d="M431.399 150.447C431.607 150.718 431.503 151.374 431.11 152.269C430.623 153.319 430.017 154.309 429.304 155.22L425.106 160.69C424.455 161.569 423.694 162.36 422.84 163.043C422.152 163.554 421.65 163.689 421.441 163.418C421.233 163.147 421.337 162.492 421.729 161.597C422.217 160.547 422.823 159.556 423.536 158.645L427.734 153.176C428.384 152.297 429.146 151.506 430 150.824C430.687 150.312 431.191 150.177 431.399 150.448V150.447Z" fill="black"/>
<path fill-rule="evenodd" clip-rule="evenodd" d="M433.623 156.667C433.623 157.051 433.194 157.419 432.431 157.69C431.5 157.987 430.528 158.13 429.551 158.114H423.614C422.637 158.13 421.665 157.987 420.734 157.69C419.97 157.419 419.542 157.051 419.542 156.667C419.542 156.284 419.971 155.916 420.734 155.644C421.665 155.348 422.637 155.205 423.614 155.221H429.551C430.528 155.205 431.5 155.348 432.431 155.644C433.194 155.916 433.623 156.284 433.623 156.667ZM410.336 163.455C410.128 163.727 409.624 163.591 408.937 163.08C408.083 162.397 407.322 161.606 406.671 160.727L402.473 155.259C401.76 154.347 401.154 153.357 400.667 152.307C400.274 151.412 400.172 150.756 400.379 150.485C400.587 150.214 401.09 150.349 401.777 150.86C402.631 151.543 403.393 152.334 404.043 153.213L408.241 158.682C408.955 159.593 409.561 160.584 410.048 161.634C410.44 162.528 410.543 163.185 410.336 163.455Z" fill="black"/>
<path fill-rule="evenodd" clip-rule="evenodd" d="M410.091 150.447C410.299 150.718 410.195 151.374 409.802 152.269C409.315 153.319 408.709 154.309 407.996 155.22L403.798 160.689C403.148 161.568 402.386 162.359 401.532 163.042C400.845 163.553 400.342 163.688 400.133 163.417C399.925 163.146 400.029 162.491 400.422 161.596C400.909 160.546 401.515 159.555 402.228 158.644L406.426 153.175C407.077 152.296 407.838 151.506 408.692 150.823C409.379 150.311 409.883 150.176 410.091 150.447Z" fill="black"/>
<path fill-rule="evenodd" clip-rule="evenodd" d="M412.314 156.667C412.314 157.051 411.885 157.419 411.121 157.69C410.191 157.987 409.218 158.13 408.242 158.114H402.305C401.328 158.13 400.356 157.987 399.425 157.69C398.662 157.419 398.233 157.051 398.233 156.667C398.233 156.284 398.662 155.916 399.425 155.644C400.356 155.348 401.328 155.205 402.305 155.221H408.243C409.219 155.205 410.192 155.348 411.122 155.644C411.886 155.916 412.315 156.284 412.315 156.667H412.314ZM493.259 163.457C493.051 163.727 492.548 163.592 491.861 163.081C491.007 162.398 490.245 161.607 489.594 160.728L485.397 155.26C484.683 154.348 484.077 153.358 483.59 152.307C483.198 151.413 483.095 150.756 483.302 150.486C483.51 150.215 484.014 150.35 484.7 150.861C485.554 151.544 486.316 152.335 486.967 153.215L491.165 158.683C491.878 159.594 492.484 160.585 492.971 161.635C493.364 162.53 493.466 163.186 493.259 163.457Z" fill="black"/>
<path fill-rule="evenodd" clip-rule="evenodd" d="M493.013 150.449C493.221 150.72 493.117 151.376 492.724 152.271C492.237 153.321 491.631 154.311 490.918 155.223L486.72 160.691C486.07 161.57 485.308 162.361 484.454 163.044C483.767 163.556 483.264 163.691 483.056 163.419C482.847 163.148 482.951 162.493 483.344 161.598C483.83 160.548 484.437 159.557 485.15 158.646L489.348 153.177C489.999 152.299 490.76 151.508 491.614 150.825C492.301 150.313 492.804 150.178 493.013 150.449Z" fill="black"/>
<path fill-rule="evenodd" clip-rule="evenodd" d="M495.238 156.669C495.238 157.052 494.809 157.42 494.045 157.692C493.114 157.988 492.142 158.131 491.165 158.115H485.228C484.252 158.131 483.279 157.988 482.348 157.692C481.585 157.421 481.156 157.053 481.156 156.669C481.156 156.285 481.585 155.917 482.348 155.646C483.279 155.349 484.252 155.206 485.228 155.222H491.165C492.142 155.206 493.114 155.349 494.045 155.646C494.808 155.917 495.238 156.285 495.238 156.669ZM471.951 163.457C471.743 163.727 471.239 163.592 470.552 163.081C469.698 162.398 468.937 161.607 468.286 160.728L464.088 155.26C463.375 154.348 462.768 153.358 462.281 152.307C461.889 151.413 461.786 150.756 461.994 150.486C462.202 150.215 462.705 150.35 463.392 150.861C464.246 151.545 465.008 152.336 465.658 153.215L469.856 158.683C470.569 159.594 471.175 160.585 471.662 161.635C472.055 162.53 472.159 163.186 471.951 163.457Z" fill="black"/>
<path fill-rule="evenodd" clip-rule="evenodd" d="M471.704 150.449C471.913 150.72 471.809 151.376 471.416 152.271C470.929 153.321 470.323 154.311 469.61 155.223L465.412 160.691C464.761 161.57 463.999 162.361 463.145 163.044C462.458 163.556 461.955 163.691 461.747 163.419C461.539 163.148 461.643 162.493 462.035 161.598C462.522 160.548 463.128 159.557 463.842 158.646L468.04 153.177C468.69 152.299 469.452 151.508 470.306 150.825C470.993 150.313 471.496 150.178 471.704 150.449Z" fill="black"/>
<path fill-rule="evenodd" clip-rule="evenodd" d="M473.929 156.669C473.929 157.052 473.5 157.42 472.736 157.692C471.806 157.988 470.833 158.131 469.857 158.115H463.92C462.943 158.131 461.97 157.988 461.04 157.692C460.276 157.42 459.847 157.053 459.847 156.669C459.847 156.285 460.276 155.917 461.04 155.646C461.97 155.349 462.943 155.206 463.92 155.222H469.857C470.833 155.206 471.806 155.349 472.736 155.646C473.5 155.917 473.929 156.285 473.929 156.669Z" fill="black"/>
<path fill-rule="evenodd" clip-rule="evenodd" d="M316.618 109.713C320.759 109.713 324.766 111.18 327.928 113.854C331.09 116.527 333.204 120.233 333.894 124.316C340.2 161.67 356.935 260.783 364.204 303.831C364.628 306.343 364.499 308.917 363.827 311.374C363.154 313.832 361.954 316.113 360.309 318.058C358.664 320.004 356.615 321.567 354.304 322.639C351.993 323.712 349.476 324.267 346.929 324.267H190.861C186.72 324.266 182.713 322.799 179.552 320.126C176.39 317.453 174.277 313.746 173.588 309.663C167.28 272.309 150.546 173.196 143.276 130.148C142.852 127.636 142.982 125.062 143.655 122.606C144.328 120.149 145.528 117.868 147.173 115.923C148.817 113.978 150.866 112.414 153.177 111.342C155.487 110.269 158.004 109.713 160.551 109.713H316.618Z" fill="#461980"/>
<path fill-rule="evenodd" clip-rule="evenodd" d="M203.667 309.683C199.526 309.683 195.519 308.216 192.357 305.543C189.194 302.869 187.081 299.162 186.392 295.079C180.46 259.941 165.374 170.587 158.545 130.148C158.121 127.636 158.249 125.062 158.922 122.605C159.594 120.148 160.795 117.868 162.439 115.922C164.083 113.977 166.132 112.413 168.443 111.341C170.753 110.268 173.27 109.713 175.817 109.713H318.861C323.002 109.712 327.01 111.179 330.172 113.852C333.334 116.526 335.448 120.233 336.137 124.316C342.071 159.455 357.158 248.808 363.984 289.248C364.408 291.759 364.279 294.333 363.607 296.79C362.934 299.247 361.734 301.528 360.09 303.473C358.445 305.419 356.396 306.982 354.086 308.055C351.775 309.127 349.259 309.683 346.711 309.683H203.667Z" fill="#E7E7E7"/>
<path fill-rule="evenodd" clip-rule="evenodd" d="M249.341 140.554C252.275 140.18 255.327 139.783 258.43 139.577C260.427 139.445 262.447 139.366 264.453 139.426C267.741 139.541 271.012 139.967 274.219 140.7C274.945 140.828 275.693 140.664 276.298 140.244C276.904 139.824 277.319 139.182 277.454 138.457C277.588 137.732 277.431 136.983 277.016 136.374C276.602 135.765 275.963 135.344 275.239 135.203C271.771 134.691 268.167 134.603 264.533 134.591C262.427 134.586 260.313 134.586 258.213 134.631C255.018 134.703 251.864 134.814 248.827 134.988C248.46 135.021 248.104 135.126 247.778 135.296C247.452 135.467 247.163 135.7 246.928 135.983C246.692 136.265 246.515 136.591 246.405 136.943C246.296 137.294 246.257 137.663 246.291 138.029C246.325 138.396 246.431 138.752 246.603 139.077C246.774 139.402 247.009 139.69 247.292 139.925C247.575 140.16 247.902 140.336 248.254 140.444C248.605 140.552 248.975 140.589 249.341 140.554ZM249.229 160.567C252.327 160.361 264.633 160.098 276.805 160.015C283.56 159.969 290.269 160.048 295.372 159.918C297.406 159.864 299.192 159.798 300.632 159.695C301.37 159.627 302.051 159.268 302.524 158.697C302.998 158.127 303.225 157.392 303.156 156.654C303.088 155.916 302.729 155.235 302.158 154.762C301.588 154.288 300.853 154.061 300.115 154.129C295.732 154.618 288.006 155.032 279.843 155.169C275.728 155.238 271.508 155.212 267.548 155.178C258.779 155.101 251.279 154.904 248.938 154.984C248.198 155.022 247.503 155.353 247.007 155.904C246.511 156.455 246.253 157.18 246.292 157.921C246.331 158.661 246.662 159.356 247.213 159.852C247.764 160.348 248.489 160.605 249.229 160.567ZM249.48 183.536C259.409 183.333 268.926 183.062 278.262 182.756C284.725 182.548 291.099 182.291 297.46 182.028C308.057 181.588 318.615 181.096 329.473 180.219C329.84 180.187 330.197 180.083 330.523 179.913C330.85 179.742 331.139 179.509 331.375 179.226C331.612 178.943 331.789 178.616 331.899 178.265C332.008 177.913 332.047 177.543 332.013 177.176C331.979 176.809 331.872 176.453 331.7 176.127C331.528 175.802 331.293 175.513 331.009 175.279C330.724 175.044 330.397 174.868 330.044 174.761C329.692 174.654 329.322 174.617 328.955 174.653C318.206 175.779 307.751 176.67 297.239 177.199C290.913 177.516 284.567 177.69 278.132 177.808C268.824 177.979 259.329 177.965 249.428 177.948C248.687 177.954 247.979 178.255 247.46 178.784C246.941 179.313 246.653 180.027 246.66 180.768C246.666 181.509 246.967 182.217 247.496 182.736C248.025 183.255 248.739 183.543 249.48 183.536ZM224.324 260.12C224.284 260.08 224.261 260.014 224.218 259.963C224.061 259.761 223.927 259.543 223.818 259.311C223.442 258.487 223.162 257.622 222.984 256.734C222.429 254.251 222.266 251.568 222.106 250.4L221.155 242.418C220.583 237.198 220.165 231.735 219.215 226.426C218.598 222.751 217.601 219.151 216.241 215.682C213.912 209.933 210.312 208.376 206.963 208.876C203.96 209.325 200.743 211.825 198.354 215.608C197.801 216.487 197.274 217.382 196.774 218.291C196.042 219.617 195.355 220.968 194.674 222.323C193.511 224.637 192.382 226.969 191.356 229.346C190.663 230.957 190.014 232.589 189.43 234.246C189.196 234.944 189.246 235.707 189.57 236.368C189.895 237.029 190.467 237.536 191.163 237.777C191.859 238.019 192.622 237.975 193.287 237.657C193.951 237.339 194.463 236.771 194.71 236.078C195.37 234.149 196.128 232.258 196.942 230.391C197.774 228.492 198.665 226.62 199.579 224.76C200.217 223.466 200.859 222.174 201.545 220.906C201.988 220.083 202.455 219.273 202.945 218.477C204.343 216.222 205.994 214.434 207.774 214.151C209.24 213.92 210.334 215.171 211.374 217.68C212.627 220.801 213.551 224.044 214.132 227.357C215.106 232.543 215.54 237.884 216.137 242.984L217.157 251.096C217.406 252.83 217.74 257.59 219.052 260.75C220.032 263.108 221.606 264.656 223.512 264.993C225.515 265.348 227.567 264.296 229.218 262.136C231.332 259.367 232.953 254.676 233.613 253.144C236.381 246.721 238.587 240.043 241.156 233.532C242.23 230.8 243.376 228.103 244.654 225.46C245.371 223.975 246.274 221.823 247.562 220.197C248.151 219.457 248.797 218.797 249.641 218.634C250.741 218.42 251.644 219.166 252.576 220.034C254.287 221.628 255.858 223.923 257.436 225.863C258.973 227.749 260.556 229.312 262.148 230.083C263.745 230.839 265.508 231.175 267.271 231.06C270.014 230.937 272.881 229.886 275.68 229.06C277.814 228.433 279.888 227.839 281.757 228.7C283.343 229.432 284.311 231.052 285.154 232.837C286.775 236.272 287.763 240.404 289.189 243.087C291.461 247.352 294.638 249.71 298.249 250.873C303.241 252.484 309.207 251.641 314.853 250.176C315.208 250.081 315.541 249.918 315.832 249.696C316.124 249.473 316.369 249.195 316.553 248.877C316.738 248.56 316.858 248.209 316.906 247.845C316.955 247.481 316.932 247.112 316.838 246.757C316.743 246.402 316.58 246.069 316.357 245.778C316.135 245.486 315.857 245.241 315.539 245.057C315.222 244.872 314.871 244.752 314.507 244.704C314.143 244.655 313.774 244.678 313.419 244.773C309.576 245.809 305.555 246.618 301.932 246.13C298.698 245.695 295.832 244.132 293.88 240.558C292.192 237.463 291.075 232.412 288.883 228.78C287.596 226.654 285.977 224.954 283.894 224.014C282.248 223.296 280.441 223.025 278.657 223.229C276.005 223.477 273.191 224.581 270.407 225.386C268.306 225.992 266.226 226.497 264.302 225.586C262.765 224.854 261.385 222.913 259.882 221.003C258.044 218.671 256.124 216.317 254.074 215.014C252.388 213.939 250.599 213.479 248.702 213.859C247.151 214.202 245.741 215.009 244.659 216.173C242.693 218.173 241.304 221.285 240.308 223.367C238.988 226.116 237.807 228.927 236.687 231.768C234.136 238.231 231.913 244.845 229.15 251.212C228.698 252.251 227.79 254.894 226.552 257.218C226.133 258.048 225.619 258.828 225.021 259.54C224.808 259.756 224.574 259.95 224.324 260.12ZM198.208 281.75C204.917 281.687 211.626 281.533 218.335 281.359C231.73 281.007 245.125 280.416 258.52 279.916C271.903 279.416 285.283 279.039 298.653 278.659C299.022 278.648 299.386 278.565 299.723 278.413C300.06 278.262 300.363 278.045 300.616 277.775C300.868 277.505 301.065 277.188 301.194 276.842C301.323 276.496 301.383 276.128 301.369 275.759C301.355 275.39 301.268 275.027 301.113 274.692C300.958 274.356 300.738 274.055 300.466 273.805C300.193 273.555 299.874 273.362 299.527 273.236C299.18 273.111 298.811 273.055 298.442 273.073C286.415 273.647 274.385 274.356 262.337 274.901C254.322 275.267 246.303 275.562 238.28 275.787C224.922 276.159 211.565 276.283 198.209 276.161C197.468 276.161 196.758 276.456 196.233 276.98C195.709 277.504 195.415 278.215 195.415 278.956C195.415 279.697 195.709 280.408 196.233 280.932C196.758 281.456 197.468 281.75 198.209 281.75H198.208ZM200.122 295.146C203.319 295.179 206.519 295.032 209.734 294.882C211.84 294.785 213.948 294.662 216.06 294.6C219.549 294.501 223.032 294.534 226.495 294.571C227.231 294.546 227.928 294.231 228.433 293.695C228.938 293.159 229.212 292.445 229.193 291.709C229.175 290.972 228.866 290.273 228.334 289.763C227.803 289.252 227.091 288.973 226.354 288.985C223.729 289.154 221.107 289.408 218.463 289.593C216.728 289.714 214.988 289.828 213.249 289.879C208.954 289.994 204.656 289.888 200.371 289.562C200.004 289.544 199.636 289.599 199.289 289.723C198.943 289.847 198.624 290.039 198.352 290.286C198.08 290.534 197.859 290.833 197.703 291.167C197.547 291.5 197.458 291.861 197.441 292.229C197.425 292.596 197.481 292.964 197.607 293.31C197.733 293.656 197.927 293.973 198.176 294.244C198.425 294.515 198.725 294.734 199.059 294.889C199.393 295.044 199.755 295.131 200.122 295.145L200.122 295.146Z" fill="white"/>
<path fill-rule="evenodd" clip-rule="evenodd" d="M227.26 180.102C227.818 179.929 228.308 179.584 228.659 179.117C229.01 178.65 229.206 178.084 229.217 177.499C233.16 171.714 235.526 165 236.082 158.021C236.77 149.472 234.71 140.746 229.573 133.511C225.398 127.614 218.238 123.413 211.615 123.519C207.38 123.585 203.306 125.308 200.194 129.379C198.076 130.25 196.173 131.573 194.62 133.257C191.374 136.634 188.868 141.383 187.377 144.56C183.188 153.464 181.468 165.43 184.682 175.052C186.926 181.772 191.497 187.401 199.206 190.247C200.598 190.764 202.043 191.127 203.515 191.33C204.983 191.536 206.47 191.584 207.949 191.473C211.596 191.152 215.117 189.982 218.23 188.055C221.231 186.216 223.936 183.932 226.253 181.281C226.597 180.895 226.933 180.502 227.26 180.102ZM223.047 177.636C222.386 176.765 221.734 175.887 221.092 175.002C218.741 171.756 216.498 168.444 214.129 165.193C213.39 164.122 212.587 163.097 211.723 162.124C211.049 161.412 210.317 160.755 209.438 160.54C208.835 160.397 208.277 160.8 207.722 161.171C206.795 161.843 205.926 162.591 205.124 163.408C202.71 165.718 200.321 168.223 198.044 170.826C195.884 173.301 193.827 175.864 191.878 178.509C194.044 181.802 197.215 184.307 200.92 185.652C201.979 186.053 203.079 186.335 204.2 186.495C205.323 186.657 206.46 186.697 207.592 186.615C210.487 186.362 213.282 185.434 215.752 183.904C218.335 182.326 220.663 180.365 222.656 178.086C222.788 177.939 222.92 177.787 223.047 177.636ZM226.358 172.993C229.12 168.315 230.762 163.062 231.156 157.644C231.693 150.261 229.861 142.735 225.361 136.534C222.673 132.842 218.492 129.967 214.258 129.159C211.558 128.642 208.843 129.06 206.58 130.782C206.638 131.005 206.667 131.235 206.666 131.465C206.666 131.645 206.649 131.824 206.615 132L207.763 136.085C208.412 138.954 208.929 141.82 209.497 144.669C209.878 146.583 210.289 148.483 210.66 150.4C211.038 152.341 211.404 154.284 211.726 156.249C212.743 156.704 213.679 157.323 214.495 158.081C215.878 159.324 217.067 160.932 218.061 162.215C220.195 164.933 222.232 167.704 224.336 170.427C225.002 171.288 225.677 172.143 226.36 172.993H226.358ZM201.986 135.188C201.622 135.258 201.248 135.253 200.886 135.174C200.037 135.718 199.257 136.361 198.563 137.091C195.711 139.992 193.54 144.123 192.214 146.866C189.094 153.321 187.391 161.641 188.485 169.13C188.667 170.389 188.939 171.633 189.298 172.854C190.872 170.969 192.497 169.129 194.173 167.334C196.632 164.694 199.189 162.151 201.778 159.813C202.919 158.768 204.487 157.322 206.167 156.48C205.903 153.349 205.606 150.257 205.067 147.194C204.484 143.88 203.627 140.62 202.761 137.323C202.541 136.598 202.283 135.886 201.987 135.188H201.986Z" fill="#167FFC"/>
<path fill-rule="evenodd" clip-rule="evenodd" d="M535.009 486.363C539.134 477.917 557.161 503.688 550.271 510.092C540.767 518.928 486.691 540.669 477.978 539.373C469.264 538.077 488.491 511.14 497.995 502.304C507.499 493.468 523.499 509.921 535.009 486.363Z" fill="#167FFC"/>
<mask id="mask1_309_809" style="mask-type:luminance" maskUnits="userSpaceOnUse" x="475" y="484" width="77" height="56">
<path d="M535.009 486.363C539.134 477.917 557.161 503.688 550.271 510.092C540.767 518.928 486.691 540.669 477.978 539.373C469.264 538.077 488.491 511.14 497.995 502.304C507.499 493.468 523.499 509.921 535.009 486.363Z" fill="white"/>
</mask>
<g mask="url(#mask1_309_809)">
<path fill-rule="evenodd" clip-rule="evenodd" d="M557.314 488.346C554.38 490.428 548.654 501.717 542.053 505.681C530.949 512.353 503.624 524.749 490.685 528.377C482.253 530.742 468.505 526.324 464.428 527.452C461.891 528.152 463.609 534.783 466.218 535.146C470.893 535.795 484.104 534.186 492.483 531.345C505.204 527.033 531.343 515.632 542.536 509.273C549.344 505.407 557.185 496.678 559.649 493.189C560.682 491.725 558.774 487.309 557.314 488.346Z" fill="white"/>
</g>
<path fill-rule="evenodd" clip-rule="evenodd" d="M372.118 446.717C380.249 442 380.869 473.444 371.58 474.925C358.765 476.971 301.744 464.915 295.228 458.986C288.713 453.058 319.683 441.39 332.498 439.344C345.312 437.298 349.439 459.873 372.118 446.717Z" fill="#167FFC"/>
<mask id="mask2_309_809" style="mask-type:luminance" maskUnits="userSpaceOnUse" x="294" y="439" width="85" height="37">
<path d="M372.118 446.717C380.249 442 380.869 473.444 371.58 474.925C358.765 476.971 301.744 464.915 295.228 458.986C288.713 453.058 319.683 441.39 332.498 439.344C345.312 437.298 349.439 459.873 372.118 446.717Z" fill="white"/>
</mask>
<g mask="url(#mask2_309_809)">
<path fill-rule="evenodd" clip-rule="evenodd" d="M389.539 460.785C385.942 460.88 374.901 467.068 367.211 466.684C354.272 466.042 324.674 461.122 311.906 456.93C303.586 454.197 294.627 442.872 290.612 441.538C288.115 440.707 285.849 447.172 287.815 448.927C291.337 452.068 303.205 458.09 311.747 460.396C324.713 463.898 352.774 468.985 365.612 469.937C373.42 470.518 384.793 467.633 388.783 466.109C390.456 465.467 391.33 460.736 389.539 460.785Z" fill="white"/>
</g>
<path fill-rule="evenodd" clip-rule="evenodd" d="M459.759 350.378C423.261 367.852 389.356 345.522 375.526 370.03C361.933 394.12 410.071 445.811 370.2 453.446C351.147 457.093 318.88 440.716 315.359 420.731C311.839 400.745 324.998 351.514 349.063 333.535C373.127 315.556 427.922 307.391 459.758 312.865C493.053 318.588 494.917 333.549 459.759 350.378Z" fill="#5FE4D4"/>
<mask id="mask3_309_809" style="mask-type:luminance" maskUnits="userSpaceOnUse" x="314" y="311" width="172" height="143">
<path d="M459.759 350.378C423.261 367.852 389.356 345.522 375.526 370.03C361.933 394.12 410.071 445.811 370.2 453.446C351.147 457.093 318.88 440.716 315.359 420.731C311.839 400.745 324.998 351.514 349.063 333.535C373.127 315.556 427.922 307.391 459.758 312.865C493.053 318.588 494.917 333.549 459.759 350.378Z" fill="white"/>
</mask>
<g mask="url(#mask3_309_809)">
<path fill-rule="evenodd" clip-rule="evenodd" d="M419.928 302.997C420.439 303.286 420.682 303.906 420.877 304.538C421.18 305.575 421.347 306.648 421.374 307.729C421.522 313.552 419.801 319.268 416.462 324.041C414.314 327.077 411.37 328.947 408.067 330.105C402.773 331.962 396.649 332.099 391.318 332.322C386.652 332.444 382.009 333.006 377.449 334.002C372.874 335.048 368.451 336.653 364.434 339.162C359.039 342.422 355.545 346.884 352.956 351.937C347.13 363.301 346.191 377.908 339.701 388.993C338.355 391.298 336.879 393.523 335.279 395.659C333.703 397.757 331.945 399.712 330.024 401.5C324.859 406.281 319.224 409.995 314.487 414.852C312.297 417.073 310.377 419.546 308.769 422.218C308.408 422.866 308.319 423.63 308.521 424.343C308.723 425.056 309.201 425.659 309.848 426.02C310.495 426.381 311.259 426.47 311.972 426.268C312.685 426.066 313.288 425.589 313.649 424.941C315.357 421.742 317.529 418.814 320.095 416.252C324.09 412.147 328.644 408.629 332.8 404.343C334.771 402.295 336.56 400.08 338.149 397.723C339.713 395.406 341.146 393.004 342.444 390.529C348.556 379.1 348.807 364.265 354.402 352.655C356.745 347.793 360.085 343.541 365.182 340.386C369.087 338.099 373.356 336.5 377.803 335.658C382.255 334.767 386.849 334.492 391.355 334.495C396.947 334.535 403.341 334.612 408.985 332.983C413.016 331.817 416.65 329.774 419.453 326.309C421.535 323.693 423.188 320.764 424.351 317.63C425.545 314.473 426.232 311.147 426.388 307.775C426.481 305.89 426.256 304.002 425.722 302.192C425.241 300.58 424.224 299.181 422.84 298.226C422.526 298.035 422.178 297.907 421.816 297.85C421.453 297.794 421.083 297.809 420.726 297.895C420.369 297.982 420.033 298.137 419.737 298.354C419.44 298.57 419.189 298.842 418.998 299.156C418.807 299.469 418.679 299.817 418.622 300.18C418.566 300.542 418.581 300.912 418.667 301.269C418.753 301.626 418.909 301.962 419.126 302.259C419.342 302.555 419.615 302.806 419.928 302.997ZM395.481 370.552C393.414 369.169 390.956 368.489 388.472 368.615C385.275 368.775 382.026 370.055 379.326 371.778C374.832 374.654 370.882 378.302 367.657 382.553C364.328 386.947 361.839 391.902 361.285 396.937C360.828 400.525 361.245 404.111 362.079 407.643C363.308 412.82 365.5 417.886 367.805 422.486C368.806 424.549 370.617 427.13 371.637 429.755C372.243 431.315 372.557 432.881 372.071 434.327C370.557 438.744 366.64 441.525 362.525 444.199C357.968 447.159 353.205 449.999 350.253 454.059C348.488 456.481 347.439 459.351 347.224 462.34C347.21 462.707 347.267 463.073 347.394 463.417C347.521 463.762 347.715 464.078 347.964 464.347C348.213 464.617 348.512 464.835 348.846 464.989C349.179 465.143 349.539 465.23 349.906 465.244C350.647 465.274 351.369 465.008 351.913 464.505C352.458 464.002 352.781 463.303 352.81 462.563C352.799 459.098 354.229 456.454 356.328 454.181C362.282 447.729 372.351 443.626 374.589 435.091C374.979 433.49 374.88 431.809 374.303 430.265C373.251 427.159 370.783 424.056 369.443 421.636C367.077 417.214 364.665 412.367 363.474 407.314C362.658 403.999 362.496 400.556 362.997 397.179C363.797 392.556 366.337 388.073 369.723 384.25C373.01 380.586 376.944 377.557 381.326 375.315C383.19 374.346 385.226 373.751 387.318 373.564C389.07 373.409 390.812 373.947 392.172 375.061C392.468 375.278 392.804 375.435 393.16 375.522C393.517 375.61 393.887 375.626 394.25 375.571C394.613 375.515 394.961 375.389 395.275 375.199C395.589 375.008 395.862 374.758 396.08 374.462C396.297 374.167 396.454 373.831 396.541 373.474C396.629 373.118 396.645 372.748 396.59 372.385C396.534 372.022 396.408 371.674 396.217 371.36C396.027 371.046 395.777 370.772 395.481 370.555V370.552Z" fill="black"/>
<path fill-rule="evenodd" clip-rule="evenodd" d="M469.613 325.207C432.217 364.175 389.71 341.611 373.503 366.221C366.291 377.177 377.277 402.568 390.37 401.768C411.216 400.497 485.383 371.344 498.589 358.583C509.187 348.345 477.571 316.913 469.613 325.207Z" fill="black" fill-opacity="0.2"/>
</g>
<path fill-rule="evenodd" clip-rule="evenodd" d="M502.025 330.115C478.325 392.46 510.214 421.198 515.633 428.597C535.053 455.101 567.419 466.388 547.221 489.808C534.553 504.497 500.274 509.707 483.701 496.352C467.036 482.924 450.968 439.46 447.231 409.241C443.494 379.022 452.659 346.165 461.278 315.037C467.874 291.215 515.876 293.683 502.025 330.115Z" fill="#5FE4D4"/>
<mask id="mask4_309_809" style="mask-type:luminance" maskUnits="userSpaceOnUse" x="446" y="299" width="108" height="206">
<path d="M502.025 330.115C478.325 392.46 510.214 421.198 515.633 428.597C535.053 455.101 567.419 466.388 547.221 489.808C534.553 504.497 500.274 509.707 483.701 496.352C467.036 482.924 450.968 439.46 447.231 409.241C443.494 379.022 452.659 346.165 461.278 315.037C467.874 291.215 515.876 293.683 502.025 330.115Z" fill="white"/>
</mask>
<g mask="url(#mask4_309_809)">
<path fill-rule="evenodd" clip-rule="evenodd" d="M514.003 301.068C510.612 302.145 507.283 304.476 504.235 307.388C500.161 311.277 496.538 316.126 493.766 319.594C484.229 331.421 474.291 347.604 469.982 364.257C467.048 375.591 466.676 387.149 470.962 397.775C471.845 400.001 473.237 402.373 475.165 403.667C475.882 404.168 476.702 404.501 477.565 404.641C478.427 404.781 479.31 404.725 480.148 404.476C482.074 403.956 485.32 401.761 488.04 401.133C489.649 400.761 491.04 401.041 491.583 403.053C495.398 417.599 491.803 434.037 494.322 448.984C495.431 455.567 497.697 461.867 502.194 467.633C504.923 471.133 508.414 473.294 512.292 474.779C520.495 477.922 530.576 477.737 538.27 481.594C541.845 483.388 544.465 486 546.617 489C550.091 493.84 552.343 499.683 555.052 505.089C555.222 505.414 555.456 505.702 555.738 505.937C556.02 506.171 556.346 506.348 556.696 506.457C557.047 506.565 557.415 506.604 557.78 506.57C558.146 506.537 558.501 506.432 558.826 506.261C559.151 506.09 559.439 505.857 559.673 505.574C559.908 505.292 560.084 504.967 560.193 504.616C560.302 504.266 560.341 503.897 560.307 503.532C560.273 503.166 560.168 502.811 559.997 502.486C556.951 496.966 554.317 491 550.505 486.094C547.794 482.605 544.528 479.614 540.17 477.625C532.187 473.979 521.929 474.485 513.461 471.568C510.083 470.405 507.006 468.664 504.563 465.725C500.207 460.478 497.923 454.658 496.728 448.546C493.824 433.663 497.12 417.133 492.997 402.667C492.359 400.361 490.984 399.567 489.311 399.541C486.334 399.499 482.099 402.461 479.774 403.09C479.135 403.276 478.463 403.316 477.808 403.206C477.152 403.097 476.529 402.842 475.985 402.459C474.299 401.307 473.145 399.178 472.393 397.215C468.496 386.875 469.036 375.712 472.208 364.871C476.908 348.804 487.329 333.492 497.061 322.36C499.878 319.166 503.558 314.671 507.641 311.137C510.164 308.954 512.838 307.154 515.561 306.434C516.266 306.221 516.859 305.739 517.21 305.092C517.561 304.445 517.643 303.685 517.438 302.978C517.232 302.271 516.756 301.674 516.112 301.316C515.469 300.959 514.71 300.869 514.001 301.068H514.003ZM454.486 443.698C454.354 441.183 455.129 438.246 456.452 435.563C457.838 432.746 459.735 430.177 461.789 428.617C462.891 427.735 464.206 427.159 465.601 426.945C466.242 426.843 466.897 426.879 467.523 427.051C468.148 427.224 468.729 427.529 469.227 427.946C470.299 428.946 471.105 430.198 471.572 431.588C472.444 433.92 472.804 436.563 473.164 438.716C473.675 441.956 474.001 445.268 474.293 448.591C474.584 451.937 474.873 455.286 475.373 458.583C475.77 461.462 476.42 464.3 477.316 467.064C478.47 470.661 480.557 473.888 483.365 476.416C489.311 481.896 497.76 484.059 503.82 490.441C505.526 492.313 506.777 494.555 507.474 496.99C508.649 500.779 508.772 504.943 508.709 508.868C508.734 509.604 509.049 510.3 509.585 510.805C510.121 511.31 510.835 511.583 511.571 511.565C512.307 511.547 513.007 511.239 513.517 510.708C514.028 510.178 514.308 509.467 514.298 508.731C514.003 504.299 513.42 499.636 511.755 495.473C510.592 492.561 508.957 489.872 506.543 487.675C499.943 481.598 491.179 479.986 484.808 474.757C482.135 472.584 480.097 469.732 478.904 466.5C477.643 462.964 476.804 459.292 476.404 455.559C475.739 449.87 475.761 444.059 475.084 438.456C474.841 436.158 474.593 433.353 473.839 430.827C473.348 428.996 472.415 427.314 471.121 425.929C469.507 424.289 467.452 423.712 465.364 423.778C463.355 423.891 461.411 424.524 459.721 425.615C457.069 427.265 454.474 430.121 452.466 433.347C450.395 436.67 449.072 440.407 448.897 443.699C448.897 444.44 449.192 445.151 449.716 445.675C450.24 446.199 450.951 446.493 451.692 446.493C452.433 446.493 453.144 446.199 453.668 445.675C454.192 445.151 454.486 444.44 454.486 443.699L454.486 443.698Z" fill="black"/>
<path fill-rule="evenodd" clip-rule="evenodd" d="M519.532 416.099C517.604 417.325 516.161 419.351 515.415 421.988C514.161 426.423 514.466 432.334 514.932 435.432C515.136 436.998 515.423 438.553 515.79 440.089C516.15 441.64 516.644 443.157 517.264 444.623C518.687 448.112 520.624 450.504 522.85 452.244C524.539 453.54 526.438 454.535 528.465 455.184C538.525 458.556 552.855 454.59 561.821 461.573C562.43 461.987 563.178 462.143 563.902 462.008C564.625 461.874 565.267 461.459 565.687 460.854C566.106 460.249 566.27 459.503 566.143 458.778C566.016 458.053 565.607 457.407 565.007 456.981C561.572 454.921 557.755 454.015 553.695 453.764C545.443 453.255 536.282 455.504 528.928 453.61C527.038 453.157 525.266 452.312 523.724 451.13C521.707 449.541 520.116 447.201 518.964 443.975C518.509 442.574 518.183 441.133 517.993 439.672C517.803 438.196 517.702 436.711 517.69 435.223C517.684 432.823 517.97 428.574 519.164 425.065C519.791 423.228 520.687 421.651 522.11 421.062C522.768 420.721 523.264 420.132 523.487 419.424C523.711 418.717 523.645 417.951 523.303 417.292C522.961 416.634 522.372 416.139 521.665 415.915C520.958 415.691 520.191 415.758 519.533 416.099H519.532Z" fill="black"/>
</g>
<path fill-rule="evenodd" clip-rule="evenodd" d="M491.094 240.651C475.663 237.026 461.004 277.244 445.521 277.875C430.037 278.506 405.117 251.666 398.194 244.434C395.271 241.375 390.739 238.426 388.618 237.777C383.16 236.102 374.101 235.58 373.474 238.519C373.059 240.466 382.471 239.003 381.963 241.907C380.674 249.285 384.411 251.164 391.491 251.628C398.836 267.225 430.611 302.696 448.529 304.953C466.446 307.211 494.504 275.942 498.983 265.174C503.854 253.473 499.455 242.613 491.094 240.651Z" fill="#D8A353"/>
<mask id="mask5_309_809" style="mask-type:luminance" maskUnits="userSpaceOnUse" x="373" y="236" width="129" height="70">
<path d="M491.094 240.651C475.663 237.026 461.004 277.244 445.521 277.875C430.037 278.506 405.117 251.666 398.194 244.434C395.271 241.375 390.739 238.426 388.618 237.777C383.16 236.102 374.101 235.58 373.474 238.519C373.059 240.466 382.471 239.003 381.963 241.907C380.674 249.285 384.411 251.164 391.491 251.628C398.836 267.225 430.611 302.696 448.529 304.953C466.446 307.211 494.504 275.942 498.983 265.174C503.854 253.473 499.455 242.613 491.094 240.651Z" fill="white"/>
</mask>
<g mask="url(#mask5_309_809)">
<path fill-rule="evenodd" clip-rule="evenodd" d="M493.086 280.317C487.773 281.211 483.749 274.788 478.877 272.414C468.486 267.353 465.914 282.647 454.493 264.961C451.042 259.613 457.316 239.383 464.666 233.584C472.016 227.784 490.921 224.575 498.599 230.154C506.277 235.734 511.661 258.696 510.74 267.056C509.938 274.373 498.397 279.426 493.086 280.317Z" fill="#167FFC"/>
<path fill-rule="evenodd" clip-rule="evenodd" d="M485.899 256.756C481.902 259.929 478.895 279.658 469.568 285.565C458.167 292.782 423.615 293.759 417.496 300.072C411.378 306.386 423.525 323.238 432.844 323.452C445.04 323.729 480.54 311.218 490.658 301.728C499.248 293.671 494.343 274.008 493.548 266.51C493.114 262.403 489.135 254.183 485.899 256.756Z" fill="black" fill-opacity="0.2"/>
</g>
<path fill-rule="evenodd" clip-rule="evenodd" d="M508.934 315.253C511.206 328.271 459.078 335.899 449.784 323.545C435.309 304.313 477.943 294.201 480.377 249.244C481.247 233.183 525.029 234.464 514.347 252.68C508.348 262.915 502.41 277.884 508.934 315.253Z" fill="#167FFC"/>
<mask id="mask6_309_809" style="mask-type:luminance" maskUnits="userSpaceOnUse" x="446" y="238" width="71" height="92">
<path d="M508.934 315.253C511.206 328.271 459.078 335.899 449.784 323.545C435.309 304.313 477.943 294.201 480.377 249.244C481.247 233.183 525.029 234.464 514.347 252.68C508.348 262.915 502.41 277.884 508.934 315.253Z" fill="white"/>
</mask>
<g mask="url(#mask6_309_809)">
<path fill-rule="evenodd" clip-rule="evenodd" d="M502.751 265.164C497.273 262.986 507.555 289.966 499.823 297.573C490.427 306.819 447.647 312.86 446.373 320.644C445.098 328.428 477.789 345.943 492.173 344.275C506.557 342.608 530.921 323.811 532.683 310.626C534.446 297.44 508.228 267.341 502.751 265.164Z" fill="black" fill-opacity="0.2"/>
</g>
<path fill-rule="evenodd" clip-rule="evenodd" d="M499.497 367.545C507.729 374.59 519.124 374.781 524.951 367.972L524.954 367.968C530.78 361.16 528.831 349.93 520.599 342.886L365.746 210.37C362.595 207.674 358.957 205.608 355.028 204.283C348.073 201.938 336.416 198.006 327.775 195.092C326.929 194.807 326.016 194.787 325.158 195.035C324.3 195.282 323.539 195.787 322.975 196.479C322.412 197.172 322.073 198.02 322.005 198.911C321.937 199.801 322.143 200.691 322.594 201.461C327.264 209.429 333.56 220.175 337.121 226.249C338.943 229.36 341.273 232.145 344.013 234.489L499.497 367.545Z" fill="#167FFC"/>
<mask id="mask7_309_809" style="mask-type:luminance" maskUnits="userSpaceOnUse" x="321" y="194" width="208" height="179">
<path d="M499.497 367.545C507.729 374.59 519.124 374.781 524.951 367.972L524.954 367.968C530.78 361.16 528.831 349.93 520.599 342.886L365.746 210.37C362.595 207.674 358.957 205.608 355.028 204.283C348.073 201.938 336.416 198.006 327.775 195.092C326.929 194.807 326.016 194.787 325.158 195.035C324.3 195.282 323.539 195.787 322.975 196.479C322.412 197.172 322.073 198.02 322.005 198.911C321.937 199.801 322.143 200.691 322.594 201.461C327.264 209.429 333.56 220.175 337.121 226.249C338.943 229.36 341.273 232.145 344.013 234.489L499.497 367.545Z" fill="white"/>
</mask>
<g mask="url(#mask7_309_809)">
<path fill-rule="evenodd" clip-rule="evenodd" d="M324.255 209.637C354.582 238.464 371.467 253.036 407.023 273.752C460.283 304.779 481.264 347.927 500.751 358.15C510.403 363.213 539.621 366.296 523.935 335.083C518.812 324.886 572.034 377.56 562.551 387.6C553.068 397.641 495.842 409.136 467.04 395.327C426.945 376.103 345.791 303.213 321.995 272.266C309.26 255.705 315.704 201.508 324.255 209.637Z" fill="black" fill-opacity="0.2"/>
</g>
<path fill-rule="evenodd" clip-rule="evenodd" d="M504.465 357.449C505.537 358.366 506.928 358.82 508.334 358.711C509.739 358.602 511.044 357.939 511.961 356.868L515.412 352.836C515.414 352.834 515.412 352.83 515.415 352.827C515.413 352.823 515.41 352.819 515.407 352.816L475.205 318.414C475.075 318.302 474.924 318.217 474.761 318.164C474.598 318.111 474.426 318.09 474.255 318.104C474.084 318.117 473.917 318.164 473.764 318.241C473.611 318.319 473.475 318.426 473.364 318.556L470.754 321.605C469.838 322.677 469.385 324.069 469.495 325.474C469.604 326.88 470.268 328.185 471.339 329.101L504.465 357.449Z" fill="white"/>
<path fill-rule="evenodd" clip-rule="evenodd" d="M504.471 243.243C491.695 252.626 512.767 289.886 503.196 302.072C493.624 314.258 456.208 312.345 447.035 316.354C445.58 316.99 441.019 308.623 438.975 307.755C435.988 306.483 436.069 310.593 438.039 314.48C438.938 316.257 430.239 306.849 429.759 308.689C428.607 313.099 434.938 324.336 448.155 326.124C474.149 329.635 512.395 329.526 525.744 317.364C539.094 305.201 533.529 263.56 528.247 253.163C522.509 241.862 511.393 238.155 504.471 243.243Z" fill="#D8A353"/>
<mask id="mask8_309_809" style="mask-type:luminance" maskUnits="userSpaceOnUse" x="429" y="241" width="106" height="88">
<path d="M504.471 243.243C491.695 252.626 512.767 289.886 503.196 302.072C493.624 314.258 456.208 312.345 447.035 316.354C445.58 316.99 441.019 308.623 438.975 307.755C435.988 306.483 436.069 310.593 438.039 314.48C438.938 316.257 430.239 306.849 429.759 308.689C428.607 313.099 434.938 324.336 448.155 326.124C474.149 329.635 512.395 329.526 525.744 317.364C539.094 305.201 533.529 263.56 528.247 253.163C522.509 241.862 511.393 238.155 504.471 243.243Z" fill="white"/>
</mask>
<g mask="url(#mask8_309_809)">
<path fill-rule="evenodd" clip-rule="evenodd" d="M535.935 267.479C533.166 272.099 525.668 270.991 520.699 273.155C510.104 277.772 520.066 289.658 499.199 286.862C492.89 286.015 481.577 268.108 481.94 258.753C482.303 249.398 492.133 232.935 501.363 230.718C510.592 228.501 531.551 239.314 537.313 245.442C542.355 250.803 538.705 262.862 535.935 267.479Z" fill="#167FFC"/>
</g>
<path fill-rule="evenodd" clip-rule="evenodd" d="M515.603 219.721C515.168 224.191 512.072 235.469 505.183 235.924C498.106 236.391 496.158 224.789 496.596 220.317C497.035 215.846 504.641 209.192 507.81 209.092C510.979 208.991 516.033 215.347 515.603 219.721Z" fill="#D8A353"/>
<path fill-rule="evenodd" clip-rule="evenodd" d="M497.714 229.059C498.171 228.682 500.162 231.342 501.322 231.405C502.482 231.467 503.531 229.316 504.674 229.436C505.817 229.556 506.84 232.61 508.172 232.109C509.504 231.608 512.004 228.572 512.672 226.433C513.341 224.294 512.886 220.559 512.172 219.29C511.545 218.182 509.572 218.373 508.377 218.818C504.471 220.284 499.091 219.862 496.968 218.358C494.845 216.855 492.793 214.913 495.648 209.792C496.634 208.029 502.274 203.543 503.514 207.035C506.006 214.067 506.543 203.398 514.749 211.427C516.723 213.355 516.192 217.136 516.032 219.933C515.872 222.73 515.226 225.744 513.78 228.211C512.174 230.956 511.651 232.93 506.385 236.414C504.141 237.897 494.213 239.208 498.588 233.662C499.339 232.713 497.259 229.433 497.714 229.059Z" fill="black"/>
</svg>
