<svg width="661" height="645" viewBox="0 0 661 645" fill="none" xmlns="http://www.w3.org/2000/svg">
<path d="M228.018 52.4308C296.313 7.44538 392.287 16.6149 452.664 83.3877C485.674 119.909 499.082 170.145 533.348 205.883C571.926 246.088 618.031 285.195 635.517 340.055C654.1 398.364 637.791 465.215 596.233 509.809C545.658 564.042 471.325 547.741 401.069 546.879C113.382 543.273 -100.444 351.341 171.64 114.736C194.38 94.8299 205.435 67.2431 228.018 52.4308Z" fill="#CCE9FF"/>
<path d="M483.008 220.225H391.268C386.093 220.225 381.858 215.993 381.858 210.82V151.258C381.858 146.085 386.093 141.853 391.268 141.853H483.008C488.183 141.853 492.417 146.085 492.417 151.258V210.82C492.417 215.993 488.183 220.225 483.008 220.225Z" fill="white"/>
<path d="M483.008 220.225H391.268C386.093 220.225 381.858 215.993 381.858 210.82V151.258C381.858 146.085 386.093 141.853 391.268 141.853H483.008C488.183 141.853 492.417 146.085 492.417 151.258V210.82C492.417 215.993 488.183 220.225 483.008 220.225Z" fill="white"/>
<path d="M376.841 152.903V211.761C376.841 219.911 383.427 226.494 391.582 226.494H479.872C488.027 226.494 494.613 219.911 494.613 211.761V152.903C494.613 144.753 488.027 138.169 479.872 138.169H391.582C383.427 138.169 376.841 144.753 376.841 152.903ZM384.525 213.25C384.447 212.779 384.211 212.309 384.211 211.839V152.982C384.211 152.198 384.447 151.493 384.682 150.866L415.811 177.59L384.525 213.25ZM479.872 145.536C480.343 145.536 480.813 145.693 481.284 145.85L435.727 184.879L390.171 145.85C390.641 145.772 391.033 145.536 391.582 145.536H479.872ZM455.643 177.434L486.772 150.709C487.007 151.414 487.243 152.12 487.243 152.825V211.682C487.243 212.231 487.086 212.623 486.929 213.093L455.643 177.434ZM391.582 219.128C390.798 219.128 390.171 218.892 389.465 218.736L421.378 182.293L433.296 192.559C434.002 193.186 434.865 193.422 435.727 193.422C436.59 193.422 437.452 193.108 438.158 192.559L450.076 182.293L481.989 218.736C481.284 218.971 480.656 219.128 479.872 219.128H391.582Z" fill="black"/>
<path d="M527.702 388.724H458.701C453.526 388.724 449.292 384.492 449.292 379.32V335.902C449.292 330.729 453.526 326.497 458.701 326.497H527.702C532.878 326.497 537.112 330.729 537.112 335.902V379.32C537.112 384.492 532.878 388.724 527.702 388.724Z" fill="white"/>
<path d="M446.782 334.883V381.436C446.782 387.862 451.957 393.113 458.465 393.113H528.329C534.759 393.113 540.012 387.94 540.012 381.436V334.883C540.012 328.456 534.837 323.205 528.329 323.205H458.465C452.036 323.284 446.782 328.456 446.782 334.883ZM452.82 382.611C452.741 382.219 452.585 381.906 452.585 381.436V334.883C452.585 334.256 452.741 333.707 452.898 333.159L477.519 354.241L452.82 382.611ZM528.329 329.083C528.721 329.083 529.035 329.24 529.427 329.318L493.436 360.197L457.446 329.318C457.838 329.24 458.152 329.083 458.544 329.083H528.329ZM509.119 354.319L533.739 333.237C533.896 333.786 534.053 334.334 534.053 334.961V381.514C534.053 381.906 533.896 382.298 533.818 382.69L509.119 354.319ZM458.465 387.235C457.838 387.235 457.368 387.078 456.819 386.922L482.067 358.081L491.555 366.153C492.103 366.623 492.809 366.858 493.436 366.858C494.142 366.858 494.769 366.623 495.318 366.153L504.806 358.081L530.054 386.922C529.505 387.078 528.956 387.235 528.408 387.235H458.465Z" fill="black"/>
<path d="M574.748 305.65H546.521C541.345 305.65 537.111 301.418 537.111 296.245V279.474C537.111 274.301 541.345 270.069 546.521 270.069H574.748C579.923 270.069 584.158 274.301 584.158 279.474V296.245C584.158 301.418 579.923 305.65 574.748 305.65Z" fill="white"/>
<path d="M535.936 275.555V300.007C535.936 303.377 538.68 306.12 542.052 306.12H578.748C582.119 306.12 584.864 303.377 584.864 300.007V275.555C584.864 272.185 582.119 269.442 578.748 269.442H542.052C538.68 269.521 535.936 272.185 535.936 275.555ZM539.15 300.634C539.072 300.399 538.994 300.242 538.994 300.007V275.555C538.994 275.242 539.072 274.928 539.15 274.693L552.088 285.744L539.15 300.634ZM578.748 272.577C578.983 272.577 579.14 272.656 579.297 272.656L560.4 288.878L541.503 272.656C541.659 272.656 541.895 272.577 542.052 272.577H578.748ZM568.633 285.744L581.57 274.693C581.649 275.007 581.727 275.242 581.727 275.555V300.007C581.727 300.242 581.649 300.399 581.57 300.634L568.633 285.744ZM542.052 303.064C541.738 303.064 541.424 302.985 541.189 302.907L554.44 287.781L559.38 292.013C559.694 292.248 560.008 292.405 560.4 292.405C560.792 292.405 561.105 292.248 561.419 292.013L566.359 287.781L579.61 302.907C579.297 302.985 579.061 303.064 578.748 303.064H542.052Z" fill="#202224"/>
<path d="M416.516 233.783C417.816 233.783 418.869 232.73 418.869 231.432C418.869 230.133 417.816 229.081 416.516 229.081C415.217 229.081 414.164 230.133 414.164 231.432C414.164 232.73 415.217 233.783 416.516 233.783Z" fill="#6B6B6B"/>
<path d="M409.067 237.78C410.366 237.78 411.419 236.727 411.419 235.429C411.419 234.13 410.366 233.078 409.067 233.078C407.768 233.078 406.715 234.13 406.715 235.429C406.715 236.727 407.768 237.78 409.067 237.78Z" fill="#6B6B6B"/>
<path d="M401.775 242.012C403.074 242.012 404.128 240.959 404.128 239.661C404.128 238.362 403.074 237.31 401.775 237.31C400.476 237.31 399.423 238.362 399.423 239.661C399.423 240.959 400.476 242.012 401.775 242.012Z" fill="#6B6B6B"/>
<path d="M395.894 248.047C397.193 248.047 398.247 246.994 398.247 245.696C398.247 244.397 397.193 243.344 395.894 243.344C394.595 243.344 393.542 244.397 393.542 245.696C393.542 246.994 394.595 248.047 395.894 248.047Z" fill="#6B6B6B"/>
<path d="M390.876 254.787C392.175 254.787 393.228 253.734 393.228 252.436C393.228 251.137 392.175 250.084 390.876 250.084C389.577 250.084 388.523 251.137 388.523 252.436C388.523 253.734 389.577 254.787 390.876 254.787Z" fill="#6B6B6B"/>
<path d="M387.034 262.31C388.333 262.31 389.386 261.258 389.386 259.959C389.386 258.661 388.333 257.608 387.034 257.608C385.735 257.608 384.682 258.661 384.682 259.959C384.682 261.258 385.735 262.31 387.034 262.31Z" fill="#6B6B6B"/>
<path d="M384.603 270.383C385.902 270.383 386.956 269.33 386.956 268.032C386.956 266.733 385.902 265.68 384.603 265.68C383.304 265.68 382.251 266.733 382.251 268.032C382.251 269.33 383.304 270.383 384.603 270.383Z" fill="#6B6B6B"/>
<path d="M429.454 303.691C430.753 303.691 431.806 302.638 431.806 301.34C431.806 300.041 430.753 298.988 429.454 298.988C428.155 298.988 427.102 300.041 427.102 301.34C427.102 302.638 428.155 303.691 429.454 303.691Z" fill="#6B6B6B"/>
<path d="M420.986 303.691C422.285 303.691 423.338 302.638 423.338 301.34C423.338 300.041 422.285 298.988 420.986 298.988C419.687 298.988 418.634 300.041 418.634 301.34C418.634 302.638 419.687 303.691 420.986 303.691Z" fill="#6B6B6B"/>
<path d="M412.517 303.691C413.816 303.691 414.87 302.638 414.87 301.34C414.87 300.041 413.816 298.988 412.517 298.988C411.218 298.988 410.165 300.041 410.165 301.34C410.165 302.638 411.218 303.691 412.517 303.691Z" fill="#6B6B6B"/>
<path d="M404.049 303.691C405.348 303.691 406.401 302.638 406.401 301.34C406.401 300.041 405.348 298.988 404.049 298.988C402.749 298.988 401.696 300.041 401.696 301.34C401.696 302.638 402.749 303.691 404.049 303.691Z" fill="#6B6B6B"/>
<path d="M395.581 303.691C396.88 303.691 397.933 302.638 397.933 301.34C397.933 300.041 396.88 298.988 395.581 298.988C394.282 298.988 393.229 300.041 393.229 301.34C393.229 302.638 394.282 303.691 395.581 303.691Z" fill="#6B6B6B"/>
<path d="M527.468 290.054C528.767 290.054 529.82 289.001 529.82 287.703C529.82 286.404 528.767 285.352 527.468 285.352C526.168 285.352 525.115 286.404 525.115 287.703C525.115 289.001 526.168 290.054 527.468 290.054Z" fill="#6B6B6B"/>
<path d="M518.999 289.819C520.298 289.819 521.351 288.766 521.351 287.468C521.351 286.169 520.298 285.117 518.999 285.117C517.7 285.117 516.646 286.169 516.646 287.468C516.646 288.766 517.7 289.819 518.999 289.819Z" fill="#6B6B6B"/>
<path d="M510.53 289.584C511.829 289.584 512.882 288.531 512.882 287.233C512.882 285.934 511.829 284.882 510.53 284.882C509.231 284.882 508.178 285.934 508.178 287.233C508.178 288.531 509.231 289.584 510.53 289.584Z" fill="#6B6B6B"/>
<path d="M502.298 291.621C503.597 291.621 504.65 290.569 504.65 289.27C504.65 287.972 503.597 286.919 502.298 286.919C500.998 286.919 499.945 287.972 499.945 289.27C499.945 290.569 500.998 291.621 502.298 291.621Z" fill="#6B6B6B"/>
<path d="M494.142 293.894C495.441 293.894 496.495 292.842 496.495 291.543C496.495 290.245 495.441 289.192 494.142 289.192C492.843 289.192 491.79 290.245 491.79 291.543C491.79 292.842 492.843 293.894 494.142 293.894Z" fill="#6B6B6B"/>
<path d="M487.164 298.597C488.463 298.597 489.516 297.544 489.516 296.245C489.516 294.947 488.463 293.894 487.164 293.894C485.865 293.894 484.812 294.947 484.812 296.245C484.812 297.544 485.865 298.597 487.164 298.597Z" fill="#6B6B6B"/>
<path d="M480.813 304.083C482.112 304.083 483.166 303.03 483.166 301.732C483.166 300.433 482.112 299.38 480.813 299.38C479.514 299.38 478.461 300.433 478.461 301.732C478.461 303.03 479.514 304.083 480.813 304.083Z" fill="#6B6B6B"/>
<path d="M475.717 310.823C477.016 310.823 478.069 309.77 478.069 308.471C478.069 307.173 477.016 306.12 475.717 306.12C474.417 306.12 473.364 307.173 473.364 308.471C473.364 309.77 474.417 310.823 475.717 310.823Z" fill="#6B6B6B"/>
<path d="M472.109 318.425C473.408 318.425 474.461 317.372 474.461 316.073C474.461 314.775 473.408 313.722 472.109 313.722C470.81 313.722 469.757 314.775 469.757 316.073C469.757 317.372 470.81 318.425 472.109 318.425Z" fill="#6B6B6B"/>
<path d="M352.611 554.324L349.71 577.052L339.909 580.578L342.496 553.305L352.611 554.324ZM307.917 554.324L305.016 577.052L295.215 580.578L297.802 553.305L307.917 554.324Z" fill="#DBA17B"/>
<path d="M320.621 273.126L305.174 292.797L319.915 300.791L336.46 280.336L320.621 273.126Z" fill="#CC9271"/>
<path d="M360.217 274.536C359.747 271.558 359.433 268.502 359.198 265.445C359.041 263.016 359.12 260.586 359.198 258.157C359.433 255.727 359.433 253.298 359.277 251.025C359.277 251.103 359.198 251.182 359.198 251.26C359.041 249.222 358.728 247.185 358.179 245.225C356.611 240.288 353.396 235.664 348.378 233.94C338.341 230.57 326.109 239.974 321.012 255.022C315.916 270.069 319.915 285.038 329.951 288.408C337.086 290.838 345.32 286.762 351.279 278.847C353.631 278.769 355.983 278.612 358.257 277.985C359.041 277.75 359.825 277.436 360.217 276.731C360.453 276.026 360.374 275.242 360.217 274.536Z" fill="#DBA17B"/>
<path d="M368.529 249.771C371.744 248.674 374.488 245.931 375.116 242.639C375.743 239.269 373.861 235.507 370.646 234.41C368.215 233.548 365.314 234.253 363.119 232.999C361.786 232.216 360.923 230.883 359.982 229.708C354.807 223.125 346.261 219.363 337.949 219.99C329.638 220.617 321.718 225.554 317.562 232.764C314.034 238.877 313.171 246.166 313.799 253.141C314.426 260.116 316.543 266.934 318.582 273.596C322.032 266.778 325.482 259.959 328.932 253.219C329.716 251.73 330.5 250.163 331.911 249.301C333.323 248.439 335.518 248.517 336.302 249.928C336.851 250.868 336.694 252.044 336.694 253.063C336.694 254.16 336.851 255.414 337.792 255.884C338.812 256.433 340.145 255.806 341.085 255.1C343.124 253.611 344.928 251.809 346.574 249.849C347.594 248.595 348.613 247.028 350.103 246.401C351.749 245.696 353.161 246.479 354.65 247.341C356.689 248.517 358.806 249.614 361.159 250.084C363.589 250.555 366.177 250.555 368.529 249.771ZM358.179 392.329C361.237 411.922 364.138 446.014 367.196 465.607C371.666 494.369 357.473 537.395 352.22 566.001C348.378 565.531 345.006 564.355 341.164 563.885C342.418 515.373 340.223 453.538 337.087 405.104C343.908 405.966 351.357 391.467 358.179 392.329Z" fill="#0B4870"/>
<path d="M310.584 405.966C314.582 406.201 318.503 402.596 322.502 402.909C327.363 403.223 332.617 404.163 337.243 405.574C341.869 406.985 347.28 402.674 351.827 401.107C352.768 408.944 351.122 422.894 349.632 430.653C346.182 448.835 342.183 466.861 337.557 484.73C335.048 494.605 327.599 504.088 323.678 513.492C322.031 517.489 320.463 521.643 318.973 525.718C315.837 534.182 310.427 558.007 307.29 566.471C303.448 566.158 299.528 566.08 295.686 565.766C296.078 557.224 299.449 532.615 299.763 524.072C300.39 509.809 307.526 494.84 313.171 481.673C310.348 468.036 310.27 453.224 310.348 439.274C310.427 426.97 310.505 418.192 310.584 405.966Z" fill="#0E538C"/>
<path d="M364.765 353.3C366.177 353.535 367.823 353.457 368.921 352.516C369.47 352.046 369.862 351.341 370.254 350.792C371.587 349.225 373.861 348.441 375.821 348.911C379.898 349.93 381.859 355.103 385.936 355.965C386.563 356.121 387.191 356.121 387.818 356.357C388.445 356.592 388.994 356.984 389.072 357.611C389.229 358.394 388.68 359.021 388.131 359.648C387.426 360.432 386.642 361.216 385.936 361.999C385.622 362.313 385.23 362.705 384.838 362.861C383.976 363.253 382.878 362.861 382.172 363.41C381.545 363.88 381.388 364.821 380.682 365.291C379.663 365.918 378.252 364.977 377.076 365.448C376.448 365.683 376.056 366.231 375.586 366.545C374.723 367.094 373.547 367.015 372.528 366.702C371.508 366.31 370.646 365.683 369.783 365.213C368.607 364.586 367.353 364.115 366.098 363.724C362.648 362.861 358.963 363.097 355.356 363.41C355.199 360.589 355.121 357.767 354.964 354.946C354.964 354.476 354.964 353.927 355.199 353.457C355.67 352.595 356.924 352.595 357.943 352.83C359.198 353.143 359.825 353.065 361.001 352.83C362.178 352.595 363.589 353.143 364.765 353.3Z" fill="#DBA17B"/>
<path d="M374.017 364.115C373.625 363.488 373.782 362.626 374.41 362.235L396.992 347.344C397.619 346.952 398.482 347.109 398.874 347.736C399.266 348.363 399.109 349.225 398.482 349.617L375.899 364.507C375.272 364.899 374.41 364.742 374.017 364.115Z" fill="#0B4870"/>
<path d="M355.983 565.296C356.297 564.591 357.159 564.355 357.708 564.826C360.139 566.863 366.647 571.487 379.585 574.465C379.585 574.465 382.721 575.092 384.995 578.776H337.008V570.312C337.008 569.371 338.106 568.901 338.811 569.45L340.693 571.017C341.556 571.801 342.732 572.193 343.83 572.193L350.73 572.271C352.219 572.271 353.552 571.409 354.101 569.998L355.983 565.296Z" fill="#CCE9FF"/>
<path d="M385.05 583.735H337.063V578.798H385.05V583.735Z" fill="#0E538C"/>
<path d="M309.094 567.961C309.565 567.412 310.506 567.49 310.898 568.117C312.466 570.86 317.092 577.365 328.148 584.654C328.148 584.654 330.892 586.378 331.833 590.532L286.669 574.309L289.57 566.315C289.884 565.453 291.06 565.296 291.53 566.158L292.707 568.274C293.255 569.293 294.196 570.077 295.294 570.468L301.724 572.82C303.135 573.368 304.703 572.898 305.644 571.801L309.094 567.961Z" fill="#CCE9FF"/>
<path d="M330.072 595.204L284.921 578.959L286.594 574.314L331.745 590.558L330.072 595.204Z" fill="#0E538C"/>
<path d="M356.689 349.303C360.139 360.824 362.727 378.928 364.373 390.84C364.766 393.662 364.53 404.32 362.57 406.358C361.394 407.612 331.049 410.982 318.425 415.135C316.7 415.684 308.467 418.897 306.82 418.192C304.468 417.173 303.213 406.828 303.762 404.399C311.054 372.971 311.054 396.091 300.391 334.256C298.273 321.873 294.196 310.431 298.43 298.597C299.842 294.678 310.505 283.236 310.505 283.236C310.505 283.236 314.112 287.076 317.798 289.27C320.856 291.073 324.855 294.286 327.442 294.913C339.282 297.656 352.533 335.431 356.689 349.303Z" fill="#2A94F4"/>
<path d="M342.026 433.161C343.045 435.355 343.516 437.785 343.751 440.136C344.065 444.29 343.594 448.443 342.418 452.362C340.693 451.97 339.282 450.403 339.046 448.6C339.83 449.854 339.125 451.735 337.713 452.127C336.302 452.519 334.734 451.186 334.812 449.697C334.42 450.951 333.009 451.892 331.754 451.657C330.421 451.422 329.402 450.168 329.48 448.835C330.029 449.227 329.872 450.168 329.402 450.56C328.853 450.951 328.069 450.873 327.52 450.56C326.971 450.246 326.579 449.619 326.344 448.992C325.952 447.895 325.795 446.719 325.717 445.544C325.324 440.528 325.011 435.434 324.619 430.418C324.54 429.713 324.54 429.007 324.854 428.38C325.481 427.205 327.128 427.048 328.539 427.126L333.95 427.361C335.126 427.44 336.38 427.361 337.478 427.753C339.438 428.694 341.085 431.28 342.026 433.161Z" fill="#DBA17B"/>
<path d="M322.424 315.447C321.797 326.027 321.169 336.685 320.464 347.266C320.072 353.143 319.758 359.1 320.62 364.899C321.326 369.758 322.816 374.461 324.306 379.085C329.716 395.856 335.126 412.628 340.615 429.399C334.813 429.007 328.932 428.616 323.13 428.224C318.503 410.277 309.565 378.222 308.78 375.323C302.351 355.181 300.077 333.786 302.116 312.782L322.424 315.447Z" fill="#2A94F4"/>
<path d="M282.92 174.519H213.919C208.744 174.519 204.51 170.287 204.51 165.114V121.696C204.51 116.524 208.744 112.292 213.919 112.292H282.92C288.095 112.292 292.329 116.524 292.329 121.696V165.114C292.329 170.287 288.095 174.519 282.92 174.519Z" fill="white"/>
<path d="M202 120.677V167.23C202 173.657 207.175 178.908 213.683 178.908H283.547C289.977 178.908 295.23 173.735 295.23 167.23V120.677C295.23 114.251 290.055 109 283.547 109H213.683C207.254 109.078 202 114.251 202 120.677ZM208.038 168.406C207.959 168.014 207.802 167.7 207.802 167.23V120.677C207.802 120.05 207.959 119.502 208.116 118.953L232.737 140.035L208.038 168.406ZM283.547 114.878C283.939 114.878 284.253 115.035 284.645 115.113L248.654 145.992L212.664 115.113C213.056 115.035 213.37 114.878 213.762 114.878H283.547ZM264.336 140.114L288.957 119.032C289.114 119.58 289.271 120.129 289.271 120.756V167.309C289.271 167.7 289.114 168.092 289.036 168.484L264.336 140.114ZM213.683 173.03C213.056 173.03 212.585 172.873 212.037 172.716L237.285 143.875L246.772 151.948C247.321 152.418 248.027 152.653 248.654 152.653C249.36 152.653 249.987 152.418 250.536 151.948L260.024 143.875L285.272 172.716C284.723 172.873 284.174 173.03 283.625 173.03H213.683Z" fill="black"/>
<path d="M193.167 334.055H101.427C96.2517 334.055 92.0176 329.823 92.0176 324.651V265.088C92.0176 259.916 96.2517 255.683 101.427 255.683H193.167C198.342 255.683 202.576 259.916 202.576 265.088V324.651C202.576 329.823 198.342 334.055 193.167 334.055Z" fill="white"/>
<path d="M193.167 334.055H101.427C96.2517 334.055 92.0176 329.823 92.0176 324.651V265.088C92.0176 259.916 96.2517 255.683 101.427 255.683H193.167C198.342 255.683 202.576 259.916 202.576 265.088V324.651C202.576 329.823 198.342 334.055 193.167 334.055Z" fill="white"/>
<path d="M87 266.734V325.591C87 333.742 93.5865 340.325 101.741 340.325H190.031C198.186 340.325 204.772 333.742 204.772 325.591V266.734C204.772 258.583 198.186 252 190.031 252H101.741C93.5865 252 87 258.583 87 266.734ZM94.6842 327.08C94.6058 326.61 94.3706 326.14 94.3706 325.669V266.812C94.3706 266.029 94.6058 265.323 94.841 264.696L125.97 291.421L94.6842 327.08ZM190.031 259.367C190.502 259.367 190.972 259.524 191.443 259.68L145.886 298.71L100.33 259.68C100.8 259.602 101.192 259.367 101.741 259.367H190.031ZM165.802 291.264L196.931 264.539C197.167 265.245 197.402 265.95 197.402 266.656V325.513C197.402 326.061 197.245 326.453 197.088 326.923L165.802 291.264ZM101.741 332.958C100.957 332.958 100.33 332.723 99.6241 332.566L131.537 296.123L143.455 306.39C144.161 307.017 145.024 307.252 145.886 307.252C146.749 307.252 147.611 306.939 148.317 306.39L160.235 296.123L192.148 332.566C191.443 332.801 190.815 332.958 190.031 332.958H101.741Z" fill="black"/>
<path d="M257.779 195.509C257.823 194.211 256.806 193.123 255.508 193.079C254.21 193.035 253.123 194.053 253.079 195.351C253.035 196.649 254.052 197.737 255.35 197.781C256.648 197.825 257.735 196.808 257.779 195.509Z" fill="#6B6B6B"/>
<path d="M261.523 203.089C261.567 201.79 260.55 200.702 259.252 200.659C257.954 200.615 256.867 201.632 256.823 202.931C256.78 204.229 257.796 205.317 259.094 205.361C260.392 205.404 261.479 204.387 261.523 203.089Z" fill="#6B6B6B"/>
<path d="M265.507 210.519C265.551 209.22 264.534 208.132 263.237 208.089C261.939 208.045 260.851 209.062 260.808 210.361C260.764 211.659 261.781 212.747 263.078 212.791C264.376 212.834 265.464 211.817 265.507 210.519Z" fill="#6B6B6B"/>
<path d="M271.341 216.599C271.385 215.301 270.368 214.213 269.071 214.169C267.773 214.126 266.685 215.143 266.642 216.441C266.598 217.74 267.615 218.828 268.912 218.871C270.21 218.915 271.298 217.898 271.341 216.599Z" fill="#6B6B6B"/>
<path d="M277.909 221.842C277.952 220.544 276.936 219.456 275.638 219.412C274.34 219.368 273.253 220.385 273.209 221.684C273.165 222.982 274.182 224.07 275.48 224.114C276.777 224.158 277.865 223.14 277.909 221.842Z" fill="#6B6B6B"/>
<path d="M285.298 225.935C285.342 224.636 284.325 223.548 283.028 223.505C281.73 223.461 280.642 224.478 280.599 225.777C280.555 227.075 281.572 228.163 282.869 228.207C284.167 228.25 285.255 227.233 285.298 225.935Z" fill="#6B6B6B"/>
<path d="M293.285 228.636C293.328 227.337 292.312 226.249 291.014 226.206C289.716 226.162 288.629 227.179 288.585 228.478C288.541 229.776 289.558 230.864 290.856 230.908C292.153 230.951 293.241 229.934 293.285 228.636Z" fill="#6B6B6B"/>
<path d="M278.225 303.702C279.525 303.702 280.578 302.65 280.578 301.351C280.578 300.053 279.525 299 278.225 299C276.926 299 275.873 300.053 275.873 301.351C275.873 302.65 276.926 303.702 278.225 303.702Z" fill="#6B6B6B"/>
<path d="M269.758 303.702C271.057 303.702 272.11 302.65 272.11 301.351C272.11 300.053 271.057 299 269.758 299C268.458 299 267.405 300.053 267.405 301.351C267.405 302.65 268.458 303.702 269.758 303.702Z" fill="#6B6B6B"/>
<path d="M261.289 303.702C262.588 303.702 263.641 302.65 263.641 301.351C263.641 300.053 262.588 299 261.289 299C259.99 299 258.937 300.053 258.937 301.351C258.937 302.65 259.99 303.702 261.289 303.702Z" fill="#6B6B6B"/>
<path d="M252.82 303.702C254.119 303.702 255.172 302.65 255.172 301.351C255.172 300.053 254.119 299 252.82 299C251.521 299 250.468 300.053 250.468 301.351C250.468 302.65 251.521 303.702 252.82 303.702Z" fill="#6B6B6B"/>
<path d="M244.352 303.702C245.651 303.702 246.705 302.65 246.705 301.351C246.705 300.053 245.651 299 244.352 299C243.053 299 242 300.053 242 301.351C242 302.65 243.053 303.702 244.352 303.702Z" fill="#6B6B6B"/>
</svg>
