<svg width="625" height="625" viewBox="0 0 625 625" fill="none" xmlns="http://www.w3.org/2000/svg">
<path d="M598.959 616.319H30.6715C26.8521 616.319 23.7271 613.194 23.7271 609.375V582.176C23.7271 578.356 26.8521 575.231 30.6715 575.231H598.959C602.778 575.231 605.903 578.356 605.903 582.176V609.375C605.903 613.194 602.778 616.319 598.959 616.319Z" fill="#F7F7F7"/>
<path d="M319.444 585.069C426.194 585.069 512.731 498.532 512.731 391.782C512.731 285.033 426.194 198.495 319.444 198.495C212.695 198.495 126.157 285.033 126.157 391.782C126.157 498.532 212.695 585.069 319.444 585.069Z" fill="#F3FAFF"/>
<path d="M559.028 528.299C563.137 517.824 567.303 506.192 563.426 495.66C562.5 493.113 561.053 490.394 561.921 487.789C563.079 484.259 567.708 483.044 569.213 479.687C570.949 475.984 568.229 471.701 568.924 467.708C569.618 463.657 573.611 460.995 577.488 459.549C581.366 458.102 585.59 457.176 588.715 454.514C594.676 449.306 593.981 439.988 592.65 432.118C591.319 424.306 590.336 415.046 596.065 409.549C585.532 411.574 574.768 413.657 565.625 419.213C556.481 424.768 549.19 434.606 549.711 445.312C550 450.694 552.083 456.424 549.653 461.169C546.991 466.319 539.873 468.345 538.079 473.843C535.995 480.15 542.187 485.937 544.618 492.13C546.933 497.975 545.833 504.514 546.354 510.706C546.875 516.956 550.116 524.016 556.308 524.942L559.028 528.299Z" fill="#FFBE55"/>
<path opacity="0.31" d="M559.028 528.299C563.137 517.824 567.303 506.192 563.426 495.66C562.5 493.113 561.053 490.394 561.921 487.789C563.079 484.259 567.708 483.044 569.213 479.687C570.949 475.984 568.229 471.701 568.924 467.708C569.618 463.657 573.611 460.995 577.488 459.549C581.366 458.102 585.59 457.176 588.715 454.514C594.676 449.306 593.981 439.988 592.65 432.118C591.319 424.306 590.336 415.046 596.065 409.549C585.532 411.574 574.768 413.657 565.625 419.213C556.481 424.768 549.19 434.606 549.711 445.312C550 450.694 552.083 456.424 549.653 461.169C546.991 466.319 539.873 468.345 538.079 473.843C535.995 480.15 542.187 485.937 544.618 492.13C546.933 497.975 545.833 504.514 546.354 510.706C546.875 516.956 550.116 524.016 556.308 524.942L559.028 528.299Z" fill="white"/>
<path d="M554.803 514.583C554.688 484.143 560.59 420.428 595.718 409.78" stroke="white" stroke-width="0.75" stroke-miterlimit="10" stroke-linecap="round"/>
<path d="M534.548 525.752C528.298 514.063 521.817 501.042 524.884 488.137C525.636 485.012 526.91 481.655 525.578 478.704C523.785 474.769 518.171 473.901 515.914 470.197C513.426 466.146 515.972 460.706 514.583 456.134C513.194 451.447 508.16 448.958 503.472 447.743C498.785 446.586 493.692 446.123 489.641 443.345C481.944 438.079 481.481 427.026 481.944 417.708C482.407 408.391 482.291 397.396 474.826 391.782C487.442 392.708 500.347 393.692 511.805 398.958C523.264 404.225 533.217 414.757 534.028 427.373C534.433 433.681 532.754 440.683 536.285 445.949C540.104 451.62 548.727 453.009 551.62 459.201C554.919 466.32 548.495 473.901 546.47 481.482C544.618 488.6 546.759 496.123 546.991 503.472C547.222 510.822 544.386 519.56 537.268 521.528L534.548 525.752Z" fill="#FFBE55"/>
<path d="M537.616 509.086C533.565 473.38 517.94 399.595 475.29 392.014" stroke="white" stroke-width="0.75" stroke-miterlimit="10" stroke-linecap="round"/>
<path d="M574.074 594.329H519.097C515.278 594.329 512.153 591.204 512.153 587.384L507.523 508.102C507.523 504.282 510.648 501.157 514.467 501.157H578.704C582.523 501.157 585.648 504.282 585.648 508.102L581.018 587.384C581.018 591.204 577.893 594.329 574.074 594.329Z" fill="#CCE9FF"/>
<path d="M75.5469 342.537L111.021 337.158L135.139 496.219L99.6651 501.598L75.5469 342.537Z" fill="#FFBE55"/>
<path d="M93.272 339.863L111.009 337.173L135.127 496.235L117.39 498.924L93.272 339.863Z" fill="#FFBE55"/>
<path d="M111.053 337.326L75.5786 342.708L83.9119 321.354L88.6573 309.317L96.7592 319.444L111.053 337.326Z" fill="#FFEBC2"/>
<path d="M96.7593 319.444L83.9121 321.354L88.6575 309.317L96.7593 319.444Z" fill="#0E538C"/>
<path d="M139.534 300.741L175.27 303.942L160.921 464.178L125.185 460.978L139.534 300.741Z" fill="#FFBE55"/>
<path d="M157.437 302.354L175.305 303.955L160.956 464.191L143.088 462.591L157.437 302.354Z" fill="#FFBE55"/>
<path d="M175.289 304.109L139.525 300.926L152.72 282.176L160.185 271.586L165.625 283.333L175.289 304.109Z" fill="#FFEBC2"/>
<path d="M165.625 283.333L152.72 282.176L160.185 271.586L165.625 283.333Z" fill="#0E538C"/>
<path d="M198.785 594.907H57.8127L39.3521 376.736H210.07L198.785 594.907Z" fill="#CCE9FF"/>
<path opacity="0.5" d="M124.71 594.907H198.785L210.069 376.736H124.71V594.907Z" fill="#CCE9FF"/>
<path d="M155.671 533.333H513.889V582.581H155.671V533.333Z" fill="#FFEBC2"/>
<path d="M157.176 533.333V582.581H532.986V586.285C532.986 590.856 528.993 594.56 524.074 594.56H158.796C147.164 594.56 137.731 585.88 137.731 575.116V542.188C137.731 531.424 147.164 522.743 158.796 522.743H524.074C528.993 522.743 532.986 526.447 532.986 531.018V533.391H157.176V533.333Z" fill="#FFBE55"/>
<path d="M155.671 555.266H513.889V582.523H155.671V555.266Z" fill="#FFEBC2"/>
<path d="M201.968 473.38H493.056V516.204H201.968V473.38Z" fill="#CCE9FF"/>
<path d="M201.968 473.38V516.204H504.051V519.444C504.051 523.437 500.81 526.62 496.875 526.62H203.241C193.924 526.62 186.343 519.039 186.343 509.722V481.076C186.343 471.759 193.924 464.178 203.241 464.178H496.875C500.81 464.178 504.051 467.419 504.051 471.354V473.437H201.968V473.38Z" fill="#2A94F4"/>
<path d="M327.778 327.604C323.785 322.338 323.437 315.104 327.199 309.607C330.208 305.208 332.234 299.769 332.002 295.776C331.539 288.6 327.083 282.002 321.007 278.067C313.021 272.859 302.373 272.107 293.75 276.157C285.127 280.208 278.877 288.889 277.778 298.322C276.968 305.093 278.53 312.5 275.058 318.403C272.512 322.627 267.824 325.116 263.194 326.794C258.507 328.414 253.588 329.514 249.306 332.002C245.023 334.491 241.377 338.773 241.435 343.75C241.493 347.512 243.634 350.984 243.866 354.688C244.213 360.127 240.393 364.931 236.343 368.519C232.234 372.107 227.546 375.232 224.768 379.919C220.197 387.674 222.338 398.148 228.125 405.093C233.912 412.037 242.593 415.914 251.273 418.171C275 424.421 300 420.37 324.479 419.965C332.06 419.85 339.815 420.081 347.164 418.171C354.514 416.262 361.69 411.863 364.757 404.919C367.882 397.975 366.319 389.526 362.153 383.218C357.986 376.91 351.447 372.338 344.56 369.097C339.583 366.725 334.259 364.873 330.208 361.169C326.157 357.465 323.785 351.157 326.505 346.354C327.546 344.502 329.282 343.056 330.266 341.204C332.234 337.616 331.424 333.044 329.225 329.572C328.819 328.993 328.356 328.357 327.778 327.604Z" fill="#0E538C"/>
<path d="M201.968 492.477H493.056V516.204H201.968V492.477Z" fill="#CCE9FF"/>
<path d="M333.333 431.713L369.213 457.176L413.195 548.032H405.093L355.903 467.593C355.903 467.593 339.121 468.171 333.333 462.963C327.546 457.755 294.271 435.185 294.271 435.185L333.333 431.713Z" fill="#0B4870"/>
<path d="M269.85 424.421C263.31 442.13 267.94 467.014 289.931 468.171C311.921 469.329 318.866 468.171 318.866 468.171L361.69 554.977H371.528L337.963 457.755L297.165 435.185L269.85 424.421Z" fill="#0E538C"/>
<path d="M303.241 323.495C309.028 331.019 322.917 351.852 328.125 375C333.333 398.148 347.801 431.713 347.801 431.713H331.019L314.815 376.736L299.769 325.231L303.241 323.495Z" fill="#4EA3FB"/>
<path d="M321.065 292.766C321.933 306.944 315.741 316.667 306.886 317.13C298.032 317.593 292.245 304.745 294.907 292.766C301.099 282.118 309.548 281.25 309.548 281.25H314.872L321.065 292.766Z" fill="#FFE3CA"/>
<path d="M315.162 284.317C313.541 289.294 309.954 293.576 305.324 296.007C300.694 298.438 295.139 299.016 290.104 297.512L302.72 279.514H313.542L323.9 287.732L322.338 297.164C318.287 294.097 315.162 284.317 315.162 284.317Z" fill="#0E538C"/>
<path d="M304.225 315.451C302.373 322.627 302.951 330.15 302.951 331.308C301.215 333.623 293.113 333.044 291.956 324.942C293.692 314.525 297.164 302.951 297.164 302.951L300.058 309.317L304.225 315.451Z" fill="#FFE3CA"/>
<path d="M293.113 318.808C285.879 321.181 261.574 332.176 260.417 334.491C262.153 340.856 270.833 435.185 270.833 435.185H310.185C310.185 435.185 304.977 383.102 307.87 379.63C310.764 376.157 320.023 364.005 318.866 362.268C317.708 360.532 303.009 323.206 303.009 323.206L293.113 318.808Z" fill="#2A94F4"/>
<path d="M260.417 334.491C254.746 338.831 230.903 377.894 238.426 398.727C245.949 419.56 270.544 431.829 270.544 431.829V420.37C270.544 420.37 250.579 404.514 251.736 392.94C252.894 381.366 266.783 357.639 266.783 357.639L260.417 334.491Z" fill="#4EA3FB"/>
<path d="M353.646 441.84H268.461C265.799 441.84 263.599 439.641 263.599 436.979L261.285 382.465C261.285 379.803 263.484 377.604 266.146 377.604H354.803C357.465 377.604 359.664 379.803 359.664 382.465L358.507 436.979C358.507 439.641 356.308 441.84 353.646 441.84Z" fill="#FFBE55"/>
<path d="M370.139 554.977C375.868 556.25 383.623 562.558 387.326 565.799C388.079 566.435 387.616 567.708 386.574 567.708C380.613 567.593 367.13 566.956 364.005 564.294C359.954 560.822 361.111 555.035 361.111 555.035H370.139V554.977ZM413.079 547.801C418.171 549.19 424.884 555.093 428.241 558.275C428.993 558.97 428.414 560.185 427.43 560.127C421.817 559.722 409.78 558.623 407.06 556.019C403.472 552.662 404.803 547.396 404.803 547.396L413.079 547.801Z" fill="#1A87D8"/>
<path d="M310.764 418.403C315.558 418.403 319.445 414.516 319.445 409.722C319.445 404.928 315.558 401.042 310.764 401.042C305.97 401.042 302.083 404.928 302.083 409.722C302.083 414.516 305.97 418.403 310.764 418.403Z" fill="white"/>
<path d="M234.375 532.986L223.38 526.62L212.384 532.986V492.477H234.375V532.986ZM404.861 293.113C404.861 294.213 404.456 295.197 403.762 296.007C404.456 296.759 404.861 297.801 404.861 298.9V302.488C404.861 303.241 404.63 303.993 404.282 304.63C404.63 305.266 404.861 306.019 404.861 306.771V310.359C404.861 312.731 402.951 314.641 400.579 314.641H363.31C360.938 314.641 359.028 312.731 359.028 310.359V306.713C359.028 305.961 359.259 305.208 359.607 304.572C359.259 303.935 359.028 303.183 359.028 302.431V298.843C359.028 297.743 359.433 296.759 360.127 295.949C359.433 295.197 359.028 294.155 359.028 293.056V289.468C359.028 287.095 360.938 285.185 363.31 285.185H400.579C402.951 285.185 404.861 287.095 404.861 289.468V293.113ZM434.607 211.979C434.607 232.87 422.454 250.868 404.861 259.433V278.877C404.861 280.324 403.646 281.539 402.199 281.539H361.69C360.243 281.539 359.028 280.324 359.028 278.877V259.433C341.435 250.926 329.282 232.87 329.282 211.979C329.282 182.87 352.836 159.317 381.944 159.317C411.053 159.317 434.607 182.928 434.607 211.979Z" fill="#FFBE55"/>
<path opacity="0.23" d="M399.884 296.296H364.583M399.884 304.398H364.583" stroke="#7F7F7F" stroke-width="2" stroke-miterlimit="10" stroke-linecap="round"/>
<path d="M390.972 218.461C390.336 217.882 389.41 217.593 388.426 217.708C387.211 217.824 386.053 218.519 385.301 219.502C384.664 220.37 384.317 221.412 384.144 222.396C383.623 222.107 383.044 221.817 382.523 221.47L382.35 221.354H381.597L381.424 221.47C380.845 221.817 380.324 222.107 379.803 222.396C379.63 221.412 379.282 220.37 378.646 219.502C377.951 218.519 376.736 217.824 375.521 217.708C374.537 217.593 373.669 217.882 372.975 218.461C372.107 219.271 371.817 220.428 372.107 221.644C372.57 223.264 373.901 224.595 375.463 224.884C376.447 225.058 377.373 225 378.357 224.769C379.803 243.576 380.382 262.616 379.977 281.424H381.713C382.118 262.558 381.539 243.461 380.093 224.653C380.093 224.479 380.093 224.306 380.035 224.132C380.729 223.843 381.366 223.495 382.002 223.09C382.639 223.438 383.276 223.843 383.97 224.132C383.97 224.306 383.97 224.479 383.912 224.653C382.465 243.461 381.887 262.558 382.292 281.424H384.028C383.623 262.616 384.201 243.519 385.648 224.769C386.574 225 387.558 225.116 388.542 224.884C390.046 224.595 391.435 223.264 391.898 221.644C392.13 220.428 391.84 219.271 390.972 218.461ZM375.752 223.264C374.884 223.09 374.016 222.222 373.727 221.238C373.611 220.833 373.553 220.197 374.074 219.792C374.364 219.502 374.769 219.444 375.058 219.444H375.289C375.984 219.502 376.736 219.907 377.199 220.544C377.72 221.238 378.009 222.107 378.125 223.09C377.315 223.322 376.563 223.38 375.752 223.264ZM390.162 221.238C389.873 222.222 389.063 223.09 388.137 223.264C387.384 223.438 386.574 223.322 385.822 223.09C385.995 222.107 386.227 221.238 386.748 220.544C387.153 219.965 387.905 219.56 388.657 219.444C389.005 219.387 389.468 219.444 389.873 219.792C390.278 220.197 390.22 220.833 390.162 221.238Z" fill="white"/>
<path d="M368.056 168.981C355.324 173.611 334.491 190.393 336.227 217.593" stroke="white" stroke-width="4" stroke-miterlimit="10" stroke-linecap="round"/>
<path d="M298.322 263.31C306.472 263.31 313.079 256.703 313.079 248.553C313.079 240.403 306.472 233.796 298.322 233.796C290.172 233.796 283.565 240.403 283.565 248.553C283.565 256.703 290.172 263.31 298.322 263.31Z" fill="#FFBE55"/>
<path d="M456.308 206.597C459.983 206.597 462.963 203.618 462.963 199.942C462.963 196.267 459.983 193.287 456.308 193.287C452.632 193.287 449.653 196.267 449.653 199.942C449.653 203.618 452.632 206.597 456.308 206.597Z" fill="#FFBE55"/>
<path d="M434.607 315.394C440.679 315.394 445.602 310.471 445.602 304.398C445.602 298.326 440.679 293.403 434.607 293.403C428.534 293.403 423.611 298.326 423.611 304.398C423.611 310.471 428.534 315.394 434.607 315.394Z" fill="#FFBE55"/>
<path d="M329.282 162.037C335.355 162.037 340.278 157.114 340.278 151.042C340.278 144.969 335.355 140.046 329.282 140.046C323.21 140.046 318.287 144.969 318.287 151.042C318.287 157.114 323.21 162.037 329.282 162.037Z" fill="#FFBE55"/>
<path opacity="0.14" d="M234.375 532.986L223.38 526.62L212.384 532.986V492.477H234.375V532.986Z" fill="#0C0C0C"/>
</svg>
