<svg width="672" height="672" viewBox="0 0 672 672" fill="none" xmlns="http://www.w3.org/2000/svg">
<path d="M174.617 298.879C174.061 298.09 173.563 297.261 173.128 296.399C166.755 283.824 173.938 266.215 174.248 265.471C174.541 264.764 175.354 264.428 176.064 264.721C176.772 265.017 177.108 265.83 176.815 266.538C176.743 266.708 169.815 283.721 175.612 295.149C178.029 299.923 182.401 303.103 188.599 304.611C209.924 309.805 224.356 292.622 238.314 276.006C244.006 269.228 249.384 262.828 255.047 258.229C261.939 252.634 263.373 253.651 269.004 259.381C274.624 265.097 285.085 275.737 312.169 290.929C312.841 291.303 313.078 292.15 312.702 292.822C312.521 293.143 312.221 293.38 311.866 293.48C311.511 293.58 311.131 293.535 310.809 293.355C283.378 277.968 272.736 267.145 267.022 261.33C261.968 256.189 261.968 256.189 256.798 260.387C251.342 264.817 246.046 271.121 240.442 277.794C226.614 294.255 210.943 312.912 187.941 307.31C182.023 305.872 177.554 303.041 174.617 298.879Z" fill="#77C6EE"/>
<path d="M355.906 612.461C411.964 612.461 457.408 610.115 457.408 607.221C457.408 604.328 411.964 601.982 355.906 601.982C299.849 601.982 254.405 604.328 254.405 607.221C254.405 610.115 299.849 612.461 355.906 612.461Z" fill="#EEEDF7"/>
<path d="M286.915 447.317C286.915 447.317 294.025 447.373 294.007 458.674C293.987 469.974 284.446 502.649 275.872 499.966C267.297 497.28 270.061 473.738 272.359 466.525C274.653 459.314 277.791 449.147 286.915 447.317Z" fill="#2B4C54"/>
<path d="M285.813 448.325C287.722 448.302 291.579 450.937 291.899 452.937C292.692 457.896 291.689 462.457 288.266 464.33C286.474 465.311 282.337 462.764 281.555 461.07C277.514 452.314 282.455 448.363 285.813 448.325Z" fill="#FDAE88"/>
<path d="M277.592 493.602C271.806 492.251 271.295 485.446 273.766 474.006C276.236 462.567 285.707 463.693 287.84 471.35C289.968 479.006 282.231 494.686 277.592 493.602Z" fill="#395B64"/>
<path d="M352.903 356.626C352.903 356.626 289.142 500.459 237.808 480.164C188.792 460.786 281.08 349.418 281.08 349.418L352.903 356.626Z" fill="#395B64"/>
<path d="M416.04 577.786C416.04 577.786 419.944 575.62 423.43 581.193C426.915 586.766 431.807 605.801 426.29 607.123C420.773 608.445 415 595.995 414.024 591.734C413.049 587.474 411.62 581.5 416.04 577.786Z" fill="#2B4C54"/>
<path d="M408.09 572.739C408.09 572.739 417.87 565.219 418.065 566.612C419.061 573.738 420.499 578.865 420.432 583.731C420.412 585.146 416.035 585.213 415.276 584.165C410.207 577.17 408.09 572.739 408.09 572.739Z" fill="#FDCEA3"/>
<path d="M426.117 604.946C422.538 606.063 420.152 602.869 417.964 596.474C415.775 590.076 421.301 587.711 424.834 590.825C428.368 593.938 428.989 604.047 426.117 604.946Z" fill="#395B64"/>
<path opacity="0.2" d="M426.406 595.847C426.173 594.693 425.766 593.802 425.246 593.125C424.873 593.453 424.517 593.801 424.18 594.167C424.816 594.953 425.387 596.053 425.418 597.493C425.486 600.806 425.383 600.909 425.383 600.909C425.383 600.909 426.955 598.559 426.406 595.847ZM423.873 592.254C423.476 592.086 423.024 592.308 422.937 592.729C422.881 592.995 422.988 593.268 423.212 593.421C423.398 593.546 423.64 593.728 423.9 593.963C424.236 593.6 424.59 593.253 424.959 592.924C424.621 592.644 424.258 592.417 423.873 592.254Z" fill="white"/>
<path d="M375.012 352.91C375.012 352.91 387.836 422.556 420.578 571.74C421.326 575.142 408.609 580.017 406.95 577.179C365.057 505.557 284.126 351.595 284.126 351.595L375.012 352.91Z" fill="#395B64"/>
<path opacity="0.25" d="M364.536 498.642C364.466 496.436 363.947 494.505 363.232 492.419C361.713 487.991 359.588 482.81 361.617 478.177C362.379 476.439 363.779 475.42 365.105 474.15C366.24 473.061 367.062 471.56 367.589 470.084C368.415 467.766 368.27 465.288 367.369 463.012C365.165 457.442 360.179 453.154 355.883 449.194C351.604 445.252 346.687 441.32 343.872 436.119C342.765 434.072 342.111 431.695 342.525 429.368C342.741 428.154 343.195 426.996 343.86 425.958C344.92 424.312 346.755 423.736 348.535 423.194C350.612 422.563 352.599 421.976 352.668 419.471C352.726 417.321 351.736 415.175 350.804 413.289C349.216 410.066 347.288 407.026 345.585 403.865C342.472 398.086 338.243 389.431 341.777 382.968C343.816 379.243 348.143 377.59 352.229 378.197C357.347 378.956 361.471 382.142 366.104 384.156C371.213 386.378 376.459 387.41 381.77 387.708C377.111 364.298 375.014 352.912 375.014 352.912L305.944 351.913L281.08 349.418C281.08 349.418 277.451 353.801 272.021 360.963C277.113 368.98 284.915 375.171 294.047 377.917C297.77 379.035 301.58 379.064 305.357 379.839C308.556 380.495 311.396 382.014 312.194 385.419C313.249 389.926 311.161 394.65 307.922 397.705C304.528 400.908 300.496 402.996 296.37 405.048C293.716 406.367 288.456 408.762 289.767 412.581C290.685 415.256 293.561 417.131 295.344 419.203C297.51 421.72 298.677 424.733 297.587 428.012C296.281 431.946 293.053 434.838 289.471 436.715C285.703 438.691 281.485 439.725 277.364 440.671C275.386 441.125 273.399 441.544 271.437 442.064C270.388 442.344 267.651 442.832 267.266 444.031C267.091 444.573 268.066 446.074 268.442 446.755C269.318 448.338 270.117 449.929 270.635 451.671C271.728 455.365 271.228 459.075 269.273 462.383C265.275 469.143 257.04 473.137 249.953 475.76C245.382 477.45 240.639 478.63 235.81 479.279C236.45 479.591 237.111 479.891 237.808 480.166C265.42 491.084 296.626 454.512 319.572 418.38C333.102 443.69 349.008 473.243 364.516 501.563C364.554 500.586 364.567 499.614 364.536 498.642Z" fill="#2B4C54"/>
<path d="M236.611 163.648L288.178 208.743L265.756 230.525C265.756 230.525 218.284 186.359 214.995 170.258C211.707 154.157 236.611 163.648 236.611 163.648Z" fill="#FDAE88"/>
<path d="M212.518 100.157C208.557 101.268 207.565 101.203 203.779 102.823C204.872 118.592 210.331 188.886 229.566 182.594C251.682 175.358 215.857 118.819 212.518 100.157Z" fill="#FDAE88"/>
<path d="M199.08 97.6595C199.501 98.4525 199.996 99.1671 200.504 99.7943C202.072 101.727 203.777 102.823 203.777 102.823L204.245 109.429C207.849 109.256 213.758 107.247 213.313 105.19C213.313 105.19 211.543 102.099 212.84 99.1626C212.844 99.1357 212.862 99.1043 212.876 99.0819C213.409 98.5623 213.765 97.4019 213.917 96.0691C214.021 95.1507 214.029 94.1495 213.942 93.2154C213.725 90.9328 218.557 86.9165 217.573 85.8973C216.585 84.8803 213.151 86.4528 212.441 88.2224C211.731 89.9853 210.157 89.329 209.655 87.5863C208.882 84.896 208.013 71.6464 206.086 71.8906C204.16 72.1347 205.069 85.2567 205.069 85.2567C205.069 85.2567 201.541 70.5555 199.803 71.7696C198.072 72.9837 201.665 86.408 201.665 86.408C201.665 86.408 198.224 75.9338 196.264 76.0659C194.302 76.1914 197.973 88.3389 197.973 88.3389C197.973 88.3389 194.537 81.2471 192.785 81.4912C191.031 81.7376 197.368 94.4138 199.08 97.6595Z" fill="#FDAE88"/>
<path opacity="0.1" d="M211.095 101.264C210.253 102.256 208.965 102.747 207.702 102.921C206.45 103.094 205.094 102.971 203.965 102.368C203.632 102.189 203.343 101.965 203.076 101.714C203.262 101.806 203.446 101.889 203.629 101.951C205.874 102.724 207.715 100.854 207.715 100.854C208.239 101.033 210.347 100.538 211.985 99.6777C211.734 100.231 211.494 100.795 211.095 101.264Z" fill="#231F20"/>
<path opacity="0.2" d="M199.08 97.6595C199.501 98.4524 199.996 99.167 200.504 99.7942C201.396 100.652 202.545 101.579 203.629 101.949C205.874 102.722 207.715 100.851 207.715 100.851C208.338 101.067 211.191 100.33 212.84 99.1603C212.844 99.1334 212.862 99.102 212.876 99.0796C213.409 98.5599 213.765 97.3996 213.917 96.0668C214.021 95.1484 214.029 94.1471 213.942 93.2131C213.725 90.9305 218.557 86.9142 217.573 85.895C216.585 84.878 213.151 86.4505 212.441 88.2201C211.731 89.983 210.157 89.3267 209.655 87.5839C208.882 84.8937 208.013 71.6441 206.086 71.8883C204.16 72.1324 205.069 85.2543 205.069 85.2543C205.069 85.2543 201.541 70.5532 199.803 71.7673C198.072 72.9814 201.665 86.4057 201.665 86.4057C201.665 86.4057 198.224 75.9315 196.264 76.0636C194.302 76.1891 197.973 88.3366 197.973 88.3366C197.973 88.3366 194.537 81.2447 192.785 81.4889C191.031 81.7375 197.368 94.4137 199.08 97.6595Z" fill="white"/>
<path d="M197.312 89.1946C197.962 88.713 198.616 88.2471 199.295 87.8192C199.971 87.3959 200.664 86.986 201.405 86.7149C202.146 86.4282 202.921 86.2042 203.694 86.0004C204.469 85.801 205.256 85.633 206.06 85.5501C205.249 85.5076 204.438 85.6173 203.643 85.7719C202.845 85.9287 202.068 86.1594 201.297 86.4282C200.529 86.7306 199.826 87.1517 199.163 87.6199C198.502 88.097 197.877 88.6144 197.312 89.1946Z" fill="#FA9C70"/>
<path d="M432.844 265.191L371.737 234.23L359.923 263.171C359.923 263.171 414.332 292.228 430.494 289.258C446.653 286.288 432.844 265.191 432.844 265.191Z" fill="#FDAE88"/>
<path d="M483.717 228.498C486.334 231.67 487.185 232.183 489.369 235.677C479.468 247.999 434.849 302.59 422.65 286.442C408.624 267.873 470.32 241.911 483.717 228.498Z" fill="#FDAE88"/>
<path d="M496.173 234.12C495.374 234.53 494.56 234.835 493.783 235.059C491.393 235.751 489.366 235.677 489.366 235.677L485.208 240.831C482.348 238.632 478.643 233.61 480.184 232.174C480.184 232.174 483.401 230.646 484.015 227.497C484.026 227.472 484.03 227.436 484.032 227.409C483.891 226.677 484.261 225.523 484.897 224.343C485.353 223.505 485.892 222.715 486.508 221.986C487.991 220.237 486.317 214.18 487.706 213.904C489.099 213.633 491.019 216.886 490.591 218.743C490.168 220.597 491.834 220.956 493.241 219.811C495.412 218.044 503.691 207.664 505.133 208.965C506.576 210.267 498.337 220.519 498.337 220.519C498.337 220.519 509.627 210.464 510.361 212.455C511.092 214.44 500.476 223.411 500.476 223.411C500.476 223.411 509.282 216.778 510.816 218.003C512.355 219.227 502.405 227.102 502.405 227.102C502.405 227.102 509.275 223.241 510.574 224.443C511.871 225.644 499.432 232.434 496.173 234.12Z" fill="#FDAE88"/>
<path opacity="0.1" d="M484.25 230.218C484.376 231.513 485.153 232.651 486.089 233.515C487.019 234.373 488.202 235.045 489.472 235.195C489.848 235.24 490.213 235.22 490.576 235.166C490.372 235.135 490.173 235.097 489.987 235.045C487.702 234.398 487.259 231.813 487.259 231.813C486.725 231.661 485.278 230.052 484.425 228.411C484.315 229.006 484.192 229.604 484.25 230.218Z" fill="#231F20"/>
<path opacity="0.2" d="M496.173 234.12C495.374 234.53 494.561 234.835 493.783 235.059C492.562 235.256 491.089 235.359 489.986 235.043C487.702 234.396 487.258 231.811 487.258 231.811C486.624 231.632 484.702 229.396 484.017 227.494C484.028 227.47 484.033 227.434 484.035 227.407C483.894 226.675 484.263 225.521 484.899 224.34C485.355 223.503 485.895 222.713 486.51 221.984C487.993 220.235 486.32 214.178 487.708 213.902C489.102 213.631 491.021 216.884 490.593 218.74C490.17 220.595 491.837 220.954 493.243 219.809C495.414 218.042 503.693 207.661 505.136 208.963C506.578 210.264 498.339 220.517 498.339 220.517C498.339 220.517 509.629 210.461 510.364 212.453C511.094 214.437 500.479 223.409 500.479 223.409C500.479 223.409 509.284 216.776 510.818 218.001C512.357 219.224 502.407 227.1 502.407 227.1C502.407 227.1 509.277 223.238 510.577 224.441C511.871 225.644 499.433 232.434 496.173 234.12Z" fill="white"/>
<path d="M502.457 228.18C502.197 227.414 501.926 226.657 501.615 225.92C501.301 225.185 500.965 224.455 500.513 223.81C500.067 223.151 499.558 222.524 499.041 221.915C498.519 221.307 497.97 220.721 497.356 220.194C498.046 220.622 498.649 221.175 499.213 221.758C499.78 222.342 500.284 222.974 500.766 223.635C501.225 224.323 501.561 225.071 501.839 225.832C502.107 226.598 502.325 227.38 502.457 228.18Z" fill="#FA9C70"/>
<path d="M412.935 251.854C362.419 210.432 364.325 226.054 331.825 217.123C331.825 217.123 298.214 215.125 275.986 195.698C267.687 188.442 258.221 229.264 258.221 229.264C258.221 229.264 272.174 250.271 288.203 260.548C282.513 301.898 260.465 353.609 272.021 360.963C284.872 369.139 362.683 371.146 375.532 361.95C383.643 356.144 378.757 307.915 373.415 278.582C376.381 278.963 385.661 284.491 399.132 287.432C412.252 281.125 412.935 251.854 412.935 251.854Z" fill="#4197FD"/>
<path opacity="0.1" d="M376.994 308.589C376.64 314.89 375.933 321.169 374.472 327.369C372.158 337.192 367.716 347.496 358.922 354.614C348.994 362.652 335.633 363.353 322.665 364.607C309.304 365.897 277.724 363.265 279.749 363.756C290.279 366.312 348.139 373.076 375.532 361.948C383.058 358.891 380.657 333.191 376.994 308.589Z" fill="#231F20"/>
<path d="M359.298 381.846C359.298 381.846 371.804 391.465 378.858 392.533V395.954C378.858 395.954 366.03 392.108 359.298 384.626V381.846ZM278.107 369.654C274.81 375.207 265.828 379.705 265.828 379.705L265.816 382.561C273.074 380.52 280.282 371.379 280.282 371.379L278.107 369.654Z" fill="#2B4C54"/>
<path d="M513.022 249.041L565.447 256.924L558.638 273.903L513.022 249.041Z" fill="#EEEDF7"/>
<path d="M269.438 112.945L248.671 66.0419L268.43 62.4355L269.438 112.945ZM490.719 163.596L519.046 120.83L532.73 135.533L490.719 163.596ZM201.123 224.24L155.906 248.465L150.83 229.031L201.123 224.24Z" fill="#BDE0FB"/>
<path d="M309.232 64.7785C309.232 67.6726 306.886 70.0179 303.992 70.0179C301.098 70.0179 298.753 67.6726 298.753 64.7785C298.753 61.8845 301.098 59.5392 303.992 59.5392C306.886 59.5414 309.232 61.8867 309.232 64.7785Z" fill="#EEEDF7"/>
<path d="M454.055 127.608C454.055 130.502 451.71 132.848 448.816 132.848C445.921 132.848 443.576 130.502 443.576 127.608C443.576 124.714 445.921 122.369 448.816 122.369C451.71 122.369 454.055 124.714 454.055 127.608Z" fill="#BDE0FB"/>
<path d="M448.818 198.399C448.818 201.293 446.472 203.638 443.578 203.638C440.684 203.638 438.339 201.293 438.339 198.399C438.339 195.505 440.684 193.16 443.578 193.16C446.472 193.162 448.818 195.507 448.818 198.399Z" fill="#EEEDF7"/>
<path d="M352.404 92.447C352.404 95.3411 350.058 97.6864 347.164 97.6864C344.27 97.6864 341.925 95.3411 341.925 92.447C341.925 89.5529 344.27 87.2076 347.164 87.2076C350.058 87.2076 352.404 89.5529 352.404 92.447Z" fill="#BDE0FB"/>
<path d="M265.756 137.601C265.756 139.682 264.069 141.371 261.986 141.371C259.905 141.371 258.216 139.684 258.216 137.601C258.216 135.52 259.903 133.831 261.986 133.831C264.069 133.831 265.756 135.518 265.756 137.601Z" fill="#EEEDF7"/>
<path d="M447.525 309.458C445.731 309.458 443.697 308.139 440.751 306.125C440.62 306.035 440.53 305.897 440.5 305.741C440.471 305.585 440.505 305.423 440.594 305.292C440.684 305.161 440.823 305.072 440.979 305.042C441.135 305.013 441.296 305.046 441.427 305.135C444.855 307.476 446.629 308.535 448.056 308.195C450.038 307.716 451.938 304.221 455.719 297.257L457.405 294.159C460.526 288.452 463.778 285.605 466.984 285.62C471.029 285.672 473.43 290.25 473.531 290.445C473.567 290.515 473.589 290.591 473.596 290.67C473.602 290.748 473.594 290.827 473.57 290.902C473.546 290.977 473.507 291.046 473.456 291.106C473.406 291.166 473.344 291.216 473.274 291.252C472.98 291.402 472.619 291.287 472.465 290.994C472.445 290.954 470.29 286.859 466.963 286.821C464.202 286.794 461.305 289.527 458.456 294.735L456.771 297.83C452.574 305.558 450.838 308.757 448.336 309.362C448.071 309.427 447.803 309.458 447.525 309.458ZM226.609 482.718H226.573C221.793 482.44 217.949 480.644 215.147 477.375C208.915 470.113 209.964 458.235 210.011 457.733C210.042 457.404 210.36 457.164 210.665 457.193C210.994 457.224 211.236 457.518 211.205 457.845C211.194 457.964 210.161 469.726 216.059 476.598C218.642 479.606 222.203 481.262 226.643 481.522C226.972 481.542 227.225 481.824 227.205 482.156C227.196 482.308 227.13 482.451 227.019 482.555C226.908 482.66 226.762 482.718 226.609 482.718ZM220.205 206.701C220.112 206.701 220.02 206.679 219.936 206.637C219.853 206.595 219.78 206.534 219.724 206.46C219.668 206.385 219.631 206.298 219.614 206.206C219.598 206.114 219.603 206.02 219.629 205.93C220.808 201.952 221.278 199.938 220.51 198.681C219.446 196.941 215.539 196.206 207.753 194.743L204.283 194.087C197.895 192.866 194.172 190.68 193.22 187.587C192.028 183.72 195.648 180.031 195.805 179.877C195.86 179.821 195.926 179.777 195.999 179.747C196.072 179.716 196.149 179.701 196.228 179.701C196.307 179.701 196.385 179.716 196.457 179.747C196.53 179.777 196.596 179.821 196.651 179.877C196.707 179.932 196.752 179.998 196.782 180.07C196.812 180.143 196.828 180.221 196.828 180.299C196.828 180.378 196.813 180.456 196.783 180.529C196.753 180.601 196.709 180.668 196.654 180.723C196.62 180.757 193.386 184.063 194.367 187.239C195.169 189.833 198.676 191.796 204.507 192.909L207.972 193.565C216.614 195.189 220.192 195.863 221.531 198.056C222.606 199.815 221.943 202.324 220.776 206.27C220.741 206.395 220.666 206.504 220.563 206.581C220.46 206.659 220.334 206.701 220.205 206.701Z" fill="#77C6EE"/>
<path d="M416.882 382.982C375.601 382.984 340.78 364.287 313.452 349.615C294.419 339.396 274.736 328.832 267.42 333.776C176.176 395.378 91.6516 367.261 88.0967 366.034L101.797 326.359L94.9466 346.196L101.689 326.321C101.861 326.379 119.242 332.055 145.445 331.437C180.12 330.613 213.257 319.695 243.931 298.986C272.258 279.861 303.293 296.52 333.305 312.632C366.6 330.507 404.338 350.771 448.436 335.603C483.163 323.66 501.211 314.516 513.155 308.464C538.35 295.698 547.216 293.713 583.898 301.73L574.938 342.738C549.396 337.158 549.398 337.156 532.125 345.907C519.153 352.48 499.553 362.412 462.087 375.296C446.277 380.735 431.188 382.982 416.882 382.982Z" fill="white"/>
<path opacity="0.2" d="M566.897 319.578C556.7 323.044 546.73 322.222 536.191 321.449C526.232 320.719 513.818 319.379 505.097 325.378C500.413 328.601 498.76 333.039 496.989 338.233C495.32 343.125 493.349 347.265 489.597 350.907C481.349 358.908 469.192 358.646 458.837 362.855C345.842 408.782 330.106 328.561 263.258 329.231C252.56 329.338 244.249 317.554 243.589 321.31C242.867 325.423 242.24 329.571 240.759 333.5C238.656 339.089 234.848 342.984 229.1 344.743C225.471 345.854 221.65 346.228 217.88 346.497C212.598 346.871 207.209 347.231 201.922 346.862C189.365 345.979 177.148 341.967 164.517 341.871C158.381 341.824 152.873 343.141 148.106 347.157C144.462 350.228 141.639 354.164 137.894 357.119C130.82 362.699 120.563 364.069 111.829 363.366C104.603 362.784 97.5719 360.745 90.9168 357.871L88.0967 366.036C91.6516 367.264 176.173 395.38 267.42 333.778C274.736 328.834 294.419 339.4 313.452 349.617C340.78 364.289 375.601 382.986 416.882 382.984C431.189 382.984 446.277 380.737 462.092 375.298C499.558 362.414 519.158 352.482 532.13 345.91C549.402 337.158 549.4 337.16 574.943 342.74L581.757 311.548C577.29 315.011 572.266 317.755 566.897 319.578Z" fill="#395B64"/>
<path d="M354.211 179.054C354.211 179.054 359.462 176.882 357.726 169.606C357.726 169.606 362.459 165.984 359.354 159.199C356.25 152.412 349.202 155.935 349.202 155.935C349.202 155.935 345.318 145.625 338.061 145.233C330.801 144.841 333.151 148.749 333.151 148.749C333.151 148.749 320.869 142.099 314.937 147.45C309.006 152.802 315.732 160.241 315.732 160.241C315.732 160.241 312.325 162.212 311.718 167.028C310.746 174.727 315.37 175.804 315.37 175.804C315.37 175.804 314.691 183.615 318.665 185.32C322.638 187.024 354.892 201.768 354.211 179.054Z" fill="#2B4C54"/>
<path d="M344.172 220.295C344.172 220.295 339.055 226.157 334.313 226.157C329.569 226.157 323.814 221.467 323.814 221.467C323.814 221.467 326.561 215.515 326.709 211.951C326.796 209.583 326.874 207.514 326.874 207.162H341.858L341.918 213.277L344.172 220.295Z" fill="#FDAE88"/>
<path opacity="0.1" d="M341.918 213.279C339.559 215.246 337.008 216.521 335.041 216.521C332.655 216.521 329.423 214.65 326.706 211.951C326.793 209.583 326.872 207.514 326.872 207.162H341.855L341.918 213.279Z" fill="#513F3C"/>
<path d="M358.796 183.671C357.204 180.566 354.314 181.456 352.677 182.302C352.605 175.654 351.819 170.583 351.819 170.583C351.763 170.227 351.651 169.888 351.481 169.568C348.174 163.594 324.02 163.37 319.117 168.874C318.647 169.38 318.367 169.962 318.273 170.583C318.273 170.583 317.536 175.681 317.52 182.354C315.9 181.492 312.928 180.506 311.306 183.671C309.042 188.088 314.133 194.663 318.434 194.481C320.1 204.239 324.493 213.275 335.048 213.275C345.807 213.275 350.217 204.243 351.841 194.488C356.102 194.497 361.032 188.03 358.796 183.671Z" fill="#FDAE88"/>
<path d="M335.292 208.656C333.433 208.656 332.349 207.574 332.331 207.558C332.254 207.474 332.212 207.362 332.215 207.248C332.218 207.133 332.266 207.024 332.348 206.944C332.43 206.863 332.54 206.818 332.655 206.817C332.769 206.817 332.88 206.861 332.963 206.94C333.041 207.019 334.912 208.835 338.079 206.875C338.287 206.748 338.558 206.81 338.686 207.019C338.814 207.225 338.751 207.498 338.543 207.626C337.297 208.396 336.202 208.656 335.292 208.656Z" fill="#FA9C70"/>
<path opacity="0.1" d="M318.913 172.052C320.239 171.709 321.371 170.849 322.565 170.215C324.023 169.44 325.633 168.786 327.289 168.616C328.05 168.538 328.839 168.569 329.567 168.829C330.319 169.098 330.911 169.633 331.527 170.124C331.831 170.368 332.152 170.594 332.51 170.751C332.945 170.941 333.395 171.008 333.865 171.026C334.864 171.062 335.863 170.881 336.824 170.619C337.767 170.361 338.713 170.029 339.593 169.608C340.438 169.203 341.334 168.88 342.265 168.746C343.179 168.616 344.178 168.647 345.059 168.943C345.791 169.189 346.391 169.684 346.994 170.15C347.686 170.684 348.405 171.096 349.277 171.248C350.15 171.403 351.035 171.326 351.915 171.277C351.855 170.825 351.817 170.578 351.817 170.578C351.761 170.222 351.649 169.884 351.478 169.564C348.172 163.589 324.018 163.365 319.115 168.869C318.645 169.375 318.365 169.958 318.27 170.578C318.27 170.578 318.188 171.147 318.08 172.148C318.358 172.166 318.642 172.124 318.913 172.052Z" fill="#FA9C70"/>
<path d="M334.223 193.982C333.637 192.658 334.499 191.153 334.537 191.088C334.62 190.946 334.756 190.844 334.915 190.802C335.073 190.76 335.242 190.783 335.384 190.866C335.682 191.036 335.78 191.415 335.61 191.713C335.442 192.004 335.095 192.891 335.373 193.514C335.592 193.964 336.157 194.257 337.055 194.389C337.135 194.401 337.213 194.429 337.283 194.47C337.353 194.512 337.414 194.567 337.463 194.633C337.511 194.698 337.547 194.772 337.566 194.851C337.586 194.93 337.591 195.012 337.579 195.093C337.567 195.173 337.54 195.251 337.498 195.321C337.456 195.391 337.401 195.452 337.336 195.501C337.27 195.549 337.196 195.585 337.117 195.605C337.038 195.625 336.956 195.629 336.876 195.617C335.543 195.422 334.66 194.896 334.253 194.049C334.244 194.024 334.232 194.002 334.223 193.982ZM332.366 203.11C332.438 204.089 333.697 204.797 335.178 204.687C336.658 204.579 337.803 203.697 337.731 202.718C337.66 201.739 336.401 201.033 334.92 201.141C333.439 201.248 332.295 202.131 332.366 203.11ZM357.477 187.513C357.598 187.513 357.712 187.441 357.759 187.322C358.789 184.688 356.153 183.131 356.126 183.116C356.092 183.096 356.054 183.082 356.015 183.077C355.975 183.072 355.935 183.074 355.897 183.085C355.859 183.095 355.823 183.112 355.791 183.137C355.76 183.161 355.734 183.191 355.714 183.225C355.631 183.369 355.68 183.555 355.824 183.637C355.916 183.691 358.037 184.955 357.197 187.101C357.136 187.255 357.213 187.432 357.367 187.493C357.403 187.506 357.439 187.513 357.477 187.513ZM346.761 183.814C346.801 183.624 346.723 183.42 346.55 183.308C342.731 180.815 339.405 184.464 339.371 184.502C339.189 184.704 339.212 185.011 339.409 185.19C339.608 185.369 339.915 185.351 340.097 185.152C340.211 185.026 342.906 182.092 346.017 184.124C346.243 184.271 346.543 184.206 346.691 183.982C346.725 183.929 346.747 183.873 346.761 183.814ZM331.289 183.086C331.329 182.896 331.251 182.692 331.078 182.58C327.259 180.087 323.933 183.736 323.899 183.774C323.718 183.976 323.74 184.283 323.937 184.462C324.137 184.641 324.444 184.623 324.625 184.424C324.739 184.298 327.434 181.364 330.545 183.396C330.612 183.439 330.688 183.465 330.767 183.473C330.846 183.48 330.926 183.468 330.999 183.438C331.072 183.407 331.137 183.359 331.187 183.298C331.238 183.237 331.273 183.164 331.289 183.086ZM323.532 179.733C323.532 179.733 330.478 180.423 331.273 179.85C332.069 179.274 330.126 177.518 326.973 177.829C323.819 178.141 322.748 179.592 323.532 179.733ZM346.92 179.733C346.92 179.733 339.973 180.423 339.178 179.85C338.383 179.274 340.325 177.518 343.479 177.829C346.633 178.141 347.704 179.592 346.92 179.733ZM312.238 187.54C312.117 187.54 312.003 187.468 311.956 187.349C310.925 184.715 313.562 183.158 313.589 183.142C313.623 183.122 313.661 183.109 313.7 183.104C313.739 183.099 313.779 183.101 313.817 183.111C313.856 183.122 313.892 183.139 313.923 183.163C313.955 183.188 313.981 183.218 314.001 183.252C314.084 183.396 314.034 183.581 313.891 183.664C313.801 183.718 311.678 184.981 312.518 187.127C312.578 187.282 312.502 187.459 312.348 187.519C312.309 187.533 312.274 187.54 312.238 187.54Z" fill="#2B4C54"/>
<path d="M406.978 327.13C406.958 327.145 406.938 327.159 406.918 327.174C402.1 330.628 394.638 329.233 382.86 326.668C382.682 326.629 382.513 326.556 382.363 326.452C382.213 326.348 382.085 326.215 381.987 326.062C381.888 325.908 381.821 325.737 381.789 325.557C381.756 325.377 381.76 325.193 381.799 325.015C381.837 324.836 381.911 324.667 382.015 324.517C382.119 324.367 382.252 324.239 382.405 324.14C382.559 324.041 382.731 323.974 382.911 323.942C383.091 323.91 383.276 323.914 383.454 323.953C395.543 326.585 401.641 327.54 405.298 324.916C405.312 324.908 405.325 324.896 405.339 324.887C410.341 321.243 411.665 309.514 414.297 286.209C414.659 282.99 415.049 279.543 415.479 275.851C417.121 261.699 422.672 252.002 431.97 247.047C452.296 236.206 482.986 251.751 484.283 252.419C484.966 252.771 485.233 253.608 484.883 254.291C484.529 254.975 483.694 255.244 483.011 254.892C482.706 254.737 452.309 239.344 433.274 249.505C424.831 254.009 419.771 262.985 418.241 276.172C417.813 279.861 417.424 283.306 417.061 286.523C414.252 311.373 412.964 322.766 406.978 327.13Z" fill="#77C6EE"/>
</svg>
